<svg xmlns="http://www.w3.org/2000/svg" version="1.1" xmlns:xlink="http://www.w3.org/1999/xlink" xmlns:svgjs="http://svgjs.com/svgjs" width="1440" height="560" preserveAspectRatio="none" viewBox="0 0 1440 560"><g mask="url(&quot;#SvgjsMask1037&quot;)" fill="none"><path d="M270.23 0C276.53 0.38 275.35 8.4 280 8.4C284.13 8.4 282.2 0.33 287.78 0C352.2 -3.87 353.89 0 420 0C490 0 490 0 560 0C630 0 630 0 700 0C770 0 770 0 840 0C910 0 910 0 980 0C1050 0 1050 0 1120 0C1190 0 1190 0 1260 0C1287.5 0 1315 -13.75 1315 0C1315 22.92 1288.46 37.43 1260 73.33C1232.96 107.43 1234.52 109.11 1204 140C1164.52 179.95 1169.4 192.36 1120 215C1057.4 243.69 1042.04 217.71 980 242.67C961.27 250.21 958.46 263.28 958.46 280C958.46 290.84 971.04 287.13 980 297.78C1029.93 357.13 1026.54 360.26 1076.25 420C1096.54 444.39 1096.84 466.05 1120 466.05C1146.06 466.05 1149.19 444.97 1174.69 420C1219.19 376.44 1217.22 374.38 1260 329C1283.21 304.38 1284.23 305.31 1306.67 280C1354.23 226.36 1351.35 223.56 1400 171.11C1416.27 153.56 1430.8 161.81 1436.52 140C1453.25 76.25 1414.08 41.72 1444.91 0C1465.82 -28.28 1520.77 -28.31 1540 0C1568.31 41.69 1540 70 1540 140C1540 210 1540 210 1540 280C1540 350 1540 350 1540 420C1540 490 1575 525 1540 560C1505 595 1470 560 1400 560C1330 560 1330 560 1260 560C1190 560 1190 560 1120 560C1050 560 1050 560 980 560C932.28 560 930.74 566.88 884.55 560C860.74 556.45 863.96 540.71 840 539.15C771.68 534.71 769.35 539.97 700 548C679.35 550.39 680.62 558.23 660 560C610.62 564.23 610 560 560 560C521.11 560 519.73 566.93 482.22 560C449.73 554 448.11 534.15 420 534.15C405.65 534.15 413.17 557.07 397.3 560C343.17 569.99 338.65 560 280 560C210 560 210 560 140 560C76.18 560 68.81 571.29 12.35 560C-1.19 557.29 1.33 547.02 0 532C-4.85 477.02 0 476 0 420C0 350 0 350 0 280C0 210 0 210 0 140C0 70 -35 35 0 0C35 -35 70 0 140 0C205.12 0 206.53 -3.82 270.23 0" stroke="rgba(168, 168, 168, 0.2)" stroke-width="2"></path><path d="M420 125.26C409.75 128.14 404.15 131.04 404.15 140C404.15 155.91 403.22 171.07 420 175C481.15 189.3 491.32 166.48 560 176.46C631.32 186.82 629.84 215.04 700 215.68C769.84 216.32 773.01 204.24 840 179.02C873.53 166.4 901.03 167.43 901.03 140C901.03 91.26 885.25 36.08 840 26.67C784.73 15.18 774.05 79.81 700 98.21C634.05 114.6 629.27 89.56 560 96.25C489.27 103.08 487.68 106.26 420 125.26" stroke="rgba(168, 168, 168, 0.2)" stroke-width="2"></path><path d="M560 410.79C554.16 410.79 547.93 413.57 547.93 420C547.93 435.68 554.4 455 560 455C565.51 455 570.14 436.07 570.14 420C570.14 413.96 565.27 410.79 560 410.79" stroke="rgba(168, 168, 168, 0.2)" stroke-width="2"></path><path d="M140 55.26C99.53 98.38 57.44 94.53 57.44 140C57.44 194.4 96.06 199.94 140 255C151.92 269.94 152.1 271.63 169.17 280C222.1 305.94 222.54 317.2 280 323.61C347.96 331.2 356 325.61 420 308C435.24 303.81 424.86 289.26 438.49 280C494.86 241.72 499.38 212.92 560 212.92C619.76 212.92 622.39 243.07 679.26 280C692.39 288.53 687.63 303.83 700 303.83C718.74 303.83 719.96 290.37 741.48 280C789.96 256.65 793.92 236.39 840 236.39C868.75 236.39 865.36 258.46 891.15 280C935.36 316.93 939.3 313.02 980 353.33C1009.98 383.02 1032.5 383.99 1032.5 420C1032.5 469.82 1021.87 515.28 980 525C925.62 537.62 912.02 471.62 840 464.68C772.02 458.12 761.83 510.61 700 498C652.26 488.27 661.1 458.3 620.87 420C591.1 391.67 591.61 364.74 560 364.74C524.97 364.74 522.69 391.03 487.59 420C452.69 448.81 451.69 448.07 420 480.31C382.89 518.07 392.17 536 350 560C322.17 575.84 315 560 280 560C210 560 210 560 140 560C127.64 560 115.29 566.56 115.29 560C115.29 548.3 130.76 543.37 140 523.48C163.28 473.37 180.34 471.89 180.34 420C180.34 366.06 178.21 319.69 140 311.82C88.04 301.12 42.29 392.47 0 382.86C-27.71 376.56 0 331.43 0 280C0 210 0 210 0 140C0 70 -35 35 0 0C35 -35 70 0 140 0C164.42 0 188.84 -11.01 188.84 0C188.84 16.62 165.23 28.38 140 55.26" stroke="rgba(168, 168, 168, 0.2)" stroke-width="2"></path><path d="M211.56 140C211.56 107.5 247.04 78.4 280 78.4C310.31 78.4 338.11 107.78 338.11 140C338.11 176.14 310.57 215.12 280 215.12C247.29 215.12 211.56 175.86 211.56 140" stroke="rgba(168, 168, 168, 0.2)" stroke-width="2"></path><path d="M420 63.86C378.73 53.41 352.59 18.5 352.59 0C352.59 -13.43 386.29 0 420 0C490 0 490 0 560 0C630 0 630 0 700 0C735.82 0 771.63 -10.5 771.63 0C771.63 12.48 739.98 36.05 700 45.97C634.17 62.3 629.92 48.03 560 52.5C489.92 56.98 482.43 79.66 420 63.86" stroke="rgba(168, 168, 168, 0.2)" stroke-width="2"></path><path d="M980 131.06C932.62 131.06 885.23 41.32 885.23 0C885.23 -24.21 932.62 0 980 0C1027.38 0 1074.77 -24.21 1074.77 0C1074.77 41.32 1027.38 131.06 980 131.06" stroke="rgba(168, 168, 168, 0.2)" stroke-width="2"></path><path d="M1512.61 140C1504.42 70.99 1499.6 57.97 1510.94 0C1513.29 -12.03 1537.5 -12.03 1540 0C1552.03 57.97 1540 70 1540 140C1540 192.5 1546.73 245 1540 245C1533.04 245 1518.95 193.49 1512.61 140" stroke="rgba(168, 168, 168, 0.2)" stroke-width="2"></path><path d="M1362.22 280C1362.22 254.94 1375.4 235.93 1400 235.93C1453.79 235.93 1460.61 255.78 1519 280C1530.61 284.82 1538.25 282.32 1540 294C1548.75 352.32 1540 357 1540 420C1540 490 1540 490 1540 560C1540 560 1540 560 1540 560C1470 560 1470 560 1400 560C1330 560 1330 560 1260 560C1190 560 1190 560 1120 560C1069.44 560 1018.89 571.37 1018.89 560C1018.89 547.42 1073.8 542.84 1120 512.11C1179.05 472.84 1176.07 467.51 1229.38 420C1246.07 405.12 1240.94 387.33 1260 387.33C1298.86 387.33 1303.86 401.04 1345.22 420C1373.86 433.13 1374.28 451.5 1400 451.5C1419.17 451.5 1435 437.62 1435 420C1435 397.64 1413.7 397.89 1400 371.54C1377.31 327.89 1362.22 322.75 1362.22 280" stroke="rgba(168, 168, 168, 0.2)" stroke-width="2"></path><path d="M12.73 0C12.73 4.18 3.66 14 0 14C-2.71 14 -3.33 3.67 0 0C3.03 -3.33 12.73 -2.82 12.73 0" stroke="rgba(168, 168, 168, 0.2)" stroke-width="2"></path><path d="M420 2.46C418.23 2.35 417.41 0.71 417.41 0C417.41 -0.52 418.71 0 420 0C490 0 490 0 560 0C603.75 0 647.5 -2.18 647.5 0C647.5 2.19 603.86 8.28 560 8.75C490.11 9.51 489.52 6.73 420 2.46" stroke="rgba(168, 168, 168, 0.2)" stroke-width="2"></path><path d="M980 56.6C959.54 56.6 939.08 17.84 939.08 0C939.08 -10.46 959.54 0 980 0C1000.46 0 1020.92 -10.46 1020.92 0C1020.92 17.84 1000.46 56.6 980 56.6" stroke="rgba(168, 168, 168, 0.2)" stroke-width="2"></path><path d="M0 203C13.5 203 49.68 246.97 49.68 280C49.68 301.19 16.19 311.43 0 311.43C-8.65 311.43 0 295.72 0 280C0 241.5 -11.34 203 0 203" stroke="rgba(168, 168, 168, 0.2)" stroke-width="2"></path><path d="M504.53 280C504.53 263.24 532.33 249.38 560 249.38C587.28 249.38 614.44 263.25 614.44 280C614.44 297.9 587.31 318.68 560 318.68C532.35 318.68 504.53 297.89 504.53 280" stroke="rgba(168, 168, 168, 0.2)" stroke-width="2"></path><path d="M239.66 420C247.39 394.47 254.53 382.67 280 380.98C344.7 376.67 352.97 390.24 420 408C426.59 409.75 427.24 414.55 427.24 420C427.24 423.78 423.22 422.84 420 426.46C360.95 492.84 364.77 500.79 302.7 560C294.77 567.56 291.35 560 280 560C252.9 560 231.42 579.47 225.81 560C211.25 509.47 220.29 483.98 239.66 420" stroke="rgba(168, 168, 168, 0.2)" stroke-width="2"></path><path d="M671.59 420C671.59 400.54 680.46 378.3 700 378.3C735.5 378.3 781.67 402.05 781.67 420C781.67 436.9 737.65 448 700 448C682.61 448 671.59 435.39 671.59 420" stroke="rgba(168, 168, 168, 0.2)" stroke-width="2"></path><path d="M933.33 420C933.33 412.98 958.6 408.89 980 408.89C986.31 408.89 988.75 414 988.75 420C988.75 428.3 987.81 437.5 980 437.5C960.1 437.5 933.33 427.29 933.33 420" stroke="rgba(168, 168, 168, 0.2)" stroke-width="2"></path><path d="M1532.22 420C1532.22 415.24 1537.8 410.67 1540 410.67C1541.69 410.67 1540 415.34 1540 420C1540 425.18 1541.73 430.37 1540 430.37C1537.84 430.37 1532.22 425.09 1532.22 420" stroke="rgba(168, 168, 168, 0.2)" stroke-width="2"></path><path d="M1116.11 560C1116.11 559.52 1117.93 558.16 1120 558.16C1124.88 558.16 1130 559.54 1130 560C1130 560.46 1125 560 1120 560C1118.05 560 1116.11 560.44 1116.11 560" stroke="rgba(168, 168, 168, 0.2)" stroke-width="2"></path><path d="M1355.79 560C1355.79 554.48 1379.03 539 1400 539C1414.69 539 1427.1 554.14 1427.1 560C1427.1 564.64 1413.55 560 1400 560C1377.89 560 1355.79 564.98 1355.79 560" stroke="rgba(168, 168, 168, 0.2)" stroke-width="2"></path></g><defs><mask id="SvgjsMask1037"><rect width="1440" height="560" fill="#ffffff"></rect></mask></defs></svg>