<svg xmlns="http://www.w3.org/2000/svg" version="1.1" xmlns:xlink="http://www.w3.org/1999/xlink" xmlns:svgjs="http://svgjs.com/svgjs" width="500" height="800" preserveAspectRatio="none" viewBox="0 0 500 800"><g mask="url(&quot;#SvgjsMask1010&quot;)" fill="none"><path d="M-51.25 557.03L-51.25 557.03" stroke="rgba(227, 227, 227, 0.6)" stroke-width="1.5"></path><path d="M-51.25 557.03L57.76 570.39" stroke="rgba(227, 227, 227, 0.6)" stroke-width="1.5"></path><path d="M-51.25 557.03L-49.51 669.8" stroke="rgba(227, 227, 227, 0.6)" stroke-width="1.5"></path><path d="M-51.25 557.03L69.58 671.35" stroke="rgba(227, 227, 227, 0.6)" stroke-width="1.5"></path><path d="M-51.25 557.03L-32.42 725.09" stroke="rgba(227, 227, 227, 0.6)" stroke-width="1.5"></path><path d="M-49.51 669.8L-49.51 669.8" stroke="rgba(227, 227, 227, 0.6)" stroke-width="1.5"></path><path d="M-49.51 669.8L-32.42 725.09" stroke="rgba(227, 227, 227, 0.6)" stroke-width="1.5"></path><path d="M-32.42 725.09L-32.42 725.09" stroke="rgba(227, 227, 227, 0.6)" stroke-width="1.5"></path><path d="M-32.42 725.09L71.35 751.18" stroke="rgba(227, 227, 227, 0.6)" stroke-width="1.5"></path><path d="M-32.42 725.09L-35.57 838.06" stroke="rgba(227, 227, 227, 0.6)" stroke-width="1.5"></path><path d="M-32.42 725.09L69.58 671.35" stroke="rgba(227, 227, 227, 0.6)" stroke-width="1.5"></path><path d="M-35.57 838.06L-35.57 838.06" stroke="rgba(227, 227, 227, 0.6)" stroke-width="1.5"></path><path d="M-35.57 838.06L57.28 836.09" stroke="rgba(227, 227, 227, 0.6)" stroke-width="1.5"></path><path d="M-35.57 838.06L71.35 751.18" stroke="rgba(227, 227, 227, 0.6)" stroke-width="1.5"></path><path d="M-35.57 838.06L-49.51 669.8" stroke="rgba(227, 227, 227, 0.6)" stroke-width="1.5"></path><path d="M-35.57 838.06L144.13 867.37" stroke="rgba(227, 227, 227, 0.6)" stroke-width="1.5"></path><path d="M-35.57 838.06L69.58 671.35" stroke="rgba(227, 227, 227, 0.6)" stroke-width="1.5"></path><path d="M57.76 570.39L57.76 570.39" stroke="rgba(227, 227, 227, 0.6)" stroke-width="1.5"></path><path d="M57.76 570.39L130.15 566.71" stroke="rgba(227, 227, 227, 0.6)" stroke-width="1.5"></path><path d="M69.58 671.35L69.58 671.35" stroke="rgba(227, 227, 227, 0.6)" stroke-width="1.5"></path><path d="M69.58 671.35L71.35 751.18" stroke="rgba(227, 227, 227, 0.6)" stroke-width="1.5"></path><path d="M69.58 671.35L57.76 570.39" stroke="rgba(227, 227, 227, 0.6)" stroke-width="1.5"></path><path d="M69.58 671.35L154 735.36" stroke="rgba(227, 227, 227, 0.6)" stroke-width="1.5"></path><path d="M69.58 671.35L173.51 629.59" stroke="rgba(227, 227, 227, 0.6)" stroke-width="1.5"></path><path d="M71.35 751.18L71.35 751.18" stroke="rgba(227, 227, 227, 0.6)" stroke-width="1.5"></path><path d="M71.35 751.18L154 735.36" stroke="rgba(227, 227, 227, 0.6)" stroke-width="1.5"></path><path d="M71.35 751.18L57.28 836.09" stroke="rgba(227, 227, 227, 0.6)" stroke-width="1.5"></path><path d="M57.28 836.09L57.28 836.09" stroke="rgba(227, 227, 227, 0.6)" stroke-width="1.5"></path><path d="M57.28 836.09L144.13 867.37" stroke="rgba(227, 227, 227, 0.6)" stroke-width="1.5"></path><path d="M140.61 446.03L140.61 446.03" stroke="rgba(227, 227, 227, 0.6)" stroke-width="1.5"></path><path d="M140.61 446.03L130.15 566.71" stroke="rgba(227, 227, 227, 0.6)" stroke-width="1.5"></path><path d="M140.61 446.03L238.78 366.99" stroke="rgba(227, 227, 227, 0.6)" stroke-width="1.5"></path><path d="M140.61 446.03L57.76 570.39" stroke="rgba(227, 227, 227, 0.6)" stroke-width="1.5"></path><path d="M140.61 446.03L250.65 567.85" stroke="rgba(227, 227, 227, 0.6)" stroke-width="1.5"></path><path d="M140.61 446.03L173.51 629.59" stroke="rgba(227, 227, 227, 0.6)" stroke-width="1.5"></path><path d="M140.61 446.03L326.83 534.06" stroke="rgba(227, 227, 227, 0.6)" stroke-width="1.5"></path><path d="M130.15 566.71L130.15 566.71" stroke="rgba(227, 227, 227, 0.6)" stroke-width="1.5"></path><path d="M130.15 566.71L173.51 629.59" stroke="rgba(227, 227, 227, 0.6)" stroke-width="1.5"></path><path d="M130.15 566.71L250.65 567.85" stroke="rgba(227, 227, 227, 0.6)" stroke-width="1.5"></path><path d="M130.15 566.71L69.58 671.35" stroke="rgba(227, 227, 227, 0.6)" stroke-width="1.5"></path><path d="M173.51 629.59L173.51 629.59" stroke="rgba(227, 227, 227, 0.6)" stroke-width="1.5"></path><path d="M173.51 629.59L249.93 674.67" stroke="rgba(227, 227, 227, 0.6)" stroke-width="1.5"></path><path d="M154 735.36L154 735.36" stroke="rgba(227, 227, 227, 0.6)" stroke-width="1.5"></path><path d="M154 735.36L258.2 761.52" stroke="rgba(227, 227, 227, 0.6)" stroke-width="1.5"></path><path d="M154 735.36L173.51 629.59" stroke="rgba(227, 227, 227, 0.6)" stroke-width="1.5"></path><path d="M154 735.36L249.93 674.67" stroke="rgba(227, 227, 227, 0.6)" stroke-width="1.5"></path><path d="M144.13 867.37L144.13 867.37" stroke="rgba(227, 227, 227, 0.6)" stroke-width="1.5"></path><path d="M144.13 867.37L267.47 831.39" stroke="rgba(227, 227, 227, 0.6)" stroke-width="1.5"></path><path d="M144.13 867.37L154 735.36" stroke="rgba(227, 227, 227, 0.6)" stroke-width="1.5"></path><path d="M238.78 366.99L238.78 366.99" stroke="rgba(227, 227, 227, 0.6)" stroke-width="1.5"></path><path d="M238.78 366.99L356.12 334.44" stroke="rgba(227, 227, 227, 0.6)" stroke-width="1.5"></path><path d="M238.78 366.99L341.41 269.38" stroke="rgba(227, 227, 227, 0.6)" stroke-width="1.5"></path><path d="M238.78 366.99L358.06 468.87" stroke="rgba(227, 227, 227, 0.6)" stroke-width="1.5"></path><path d="M250.65 567.85L250.65 567.85" stroke="rgba(227, 227, 227, 0.6)" stroke-width="1.5"></path><path d="M250.65 567.85L326.83 534.06" stroke="rgba(227, 227, 227, 0.6)" stroke-width="1.5"></path><path d="M250.65 567.85L173.51 629.59" stroke="rgba(227, 227, 227, 0.6)" stroke-width="1.5"></path><path d="M250.65 567.85L249.93 674.67" stroke="rgba(227, 227, 227, 0.6)" stroke-width="1.5"></path><path d="M250.65 567.85L351.81 653.8" stroke="rgba(227, 227, 227, 0.6)" stroke-width="1.5"></path><path d="M249.93 674.67L249.93 674.67" stroke="rgba(227, 227, 227, 0.6)" stroke-width="1.5"></path><path d="M249.93 674.67L258.2 761.52" stroke="rgba(227, 227, 227, 0.6)" stroke-width="1.5"></path><path d="M258.2 761.52L258.2 761.52" stroke="rgba(227, 227, 227, 0.6)" stroke-width="1.5"></path><path d="M258.2 761.52L267.47 831.39" stroke="rgba(227, 227, 227, 0.6)" stroke-width="1.5"></path><path d="M258.2 761.52L349.34 739.72" stroke="rgba(227, 227, 227, 0.6)" stroke-width="1.5"></path><path d="M258.2 761.52L351.81 653.8" stroke="rgba(227, 227, 227, 0.6)" stroke-width="1.5"></path><path d="M258.2 761.52L356.47 869.96" stroke="rgba(227, 227, 227, 0.6)" stroke-width="1.5"></path><path d="M267.47 831.39L267.47 831.39" stroke="rgba(227, 227, 227, 0.6)" stroke-width="1.5"></path><path d="M267.47 831.39L356.47 869.96" stroke="rgba(227, 227, 227, 0.6)" stroke-width="1.5"></path><path d="M267.47 831.39L349.34 739.72" stroke="rgba(227, 227, 227, 0.6)" stroke-width="1.5"></path><path d="M267.47 831.39L154 735.36" stroke="rgba(227, 227, 227, 0.6)" stroke-width="1.5"></path><path d="M341.28 -73.26L341.28 -73.26" stroke="rgba(227, 227, 227, 0.6)" stroke-width="1.5"></path><path d="M341.28 -73.26L334.09 44.04" stroke="rgba(227, 227, 227, 0.6)" stroke-width="1.5"></path><path d="M341.28 -73.26L452.65 64.82" stroke="rgba(227, 227, 227, 0.6)" stroke-width="1.5"></path><path d="M341.28 -73.26L347.78 136.67" stroke="rgba(227, 227, 227, 0.6)" stroke-width="1.5"></path><path d="M341.28 -73.26L535.92 51.97" stroke="rgba(227, 227, 227, 0.6)" stroke-width="1.5"></path><path d="M341.28 -73.26L429.17 148.67" stroke="rgba(227, 227, 227, 0.6)" stroke-width="1.5"></path><path d="M341.28 -73.26L551.32 156.3" stroke="rgba(227, 227, 227, 0.6)" stroke-width="1.5"></path><path d="M334.09 44.04L334.09 44.04" stroke="rgba(227, 227, 227, 0.6)" stroke-width="1.5"></path><path d="M334.09 44.04L347.78 136.67" stroke="rgba(227, 227, 227, 0.6)" stroke-width="1.5"></path><path d="M334.09 44.04L452.65 64.82" stroke="rgba(227, 227, 227, 0.6)" stroke-width="1.5"></path><path d="M334.09 44.04L429.17 148.67" stroke="rgba(227, 227, 227, 0.6)" stroke-width="1.5"></path><path d="M334.09 44.04L535.92 51.97" stroke="rgba(227, 227, 227, 0.6)" stroke-width="1.5"></path><path d="M347.78 136.67L347.78 136.67" stroke="rgba(227, 227, 227, 0.6)" stroke-width="1.5"></path><path d="M347.78 136.67L429.17 148.67" stroke="rgba(227, 227, 227, 0.6)" stroke-width="1.5"></path><path d="M347.78 136.67L452.65 64.82" stroke="rgba(227, 227, 227, 0.6)" stroke-width="1.5"></path><path d="M347.78 136.67L341.41 269.38" stroke="rgba(227, 227, 227, 0.6)" stroke-width="1.5"></path><path d="M347.78 136.67L454.01 272.67" stroke="rgba(227, 227, 227, 0.6)" stroke-width="1.5"></path><path d="M347.78 136.67L356.12 334.44" stroke="rgba(227, 227, 227, 0.6)" stroke-width="1.5"></path><path d="M341.41 269.38L341.41 269.38" stroke="rgba(227, 227, 227, 0.6)" stroke-width="1.5"></path><path d="M341.41 269.38L356.12 334.44" stroke="rgba(227, 227, 227, 0.6)" stroke-width="1.5"></path><path d="M341.41 269.38L454.01 272.67" stroke="rgba(227, 227, 227, 0.6)" stroke-width="1.5"></path><path d="M341.41 269.38L435.08 346.46" stroke="rgba(227, 227, 227, 0.6)" stroke-width="1.5"></path><path d="M356.12 334.44L356.12 334.44" stroke="rgba(227, 227, 227, 0.6)" stroke-width="1.5"></path><path d="M356.12 334.44L435.08 346.46" stroke="rgba(227, 227, 227, 0.6)" stroke-width="1.5"></path><path d="M356.12 334.44L454.01 272.67" stroke="rgba(227, 227, 227, 0.6)" stroke-width="1.5"></path><path d="M358.06 468.87L358.06 468.87" stroke="rgba(227, 227, 227, 0.6)" stroke-width="1.5"></path><path d="M358.06 468.87L326.83 534.06" stroke="rgba(227, 227, 227, 0.6)" stroke-width="1.5"></path><path d="M326.83 534.06L326.83 534.06" stroke="rgba(227, 227, 227, 0.6)" stroke-width="1.5"></path><path d="M326.83 534.06L351.81 653.8" stroke="rgba(227, 227, 227, 0.6)" stroke-width="1.5"></path><path d="M326.83 534.06L461.08 536.75" stroke="rgba(227, 227, 227, 0.6)" stroke-width="1.5"></path><path d="M326.83 534.06L249.93 674.67" stroke="rgba(227, 227, 227, 0.6)" stroke-width="1.5"></path><path d="M351.81 653.8L351.81 653.8" stroke="rgba(227, 227, 227, 0.6)" stroke-width="1.5"></path><path d="M351.81 653.8L349.34 739.72" stroke="rgba(227, 227, 227, 0.6)" stroke-width="1.5"></path><path d="M351.81 653.8L249.93 674.67" stroke="rgba(227, 227, 227, 0.6)" stroke-width="1.5"></path><path d="M349.34 739.72L349.34 739.72" stroke="rgba(227, 227, 227, 0.6)" stroke-width="1.5"></path><path d="M356.47 869.96L356.47 869.96" stroke="rgba(227, 227, 227, 0.6)" stroke-width="1.5"></path><path d="M356.47 869.96L452.64 862.89" stroke="rgba(227, 227, 227, 0.6)" stroke-width="1.5"></path><path d="M356.47 869.96L349.34 739.72" stroke="rgba(227, 227, 227, 0.6)" stroke-width="1.5"></path><path d="M356.47 869.96L470.31 755.77" stroke="rgba(227, 227, 227, 0.6)" stroke-width="1.5"></path><path d="M452.65 64.82L452.65 64.82" stroke="rgba(227, 227, 227, 0.6)" stroke-width="1.5"></path><path d="M452.65 64.82L535.92 51.97" stroke="rgba(227, 227, 227, 0.6)" stroke-width="1.5"></path><path d="M452.65 64.82L429.17 148.67" stroke="rgba(227, 227, 227, 0.6)" stroke-width="1.5"></path><path d="M429.17 148.67L429.17 148.67" stroke="rgba(227, 227, 227, 0.6)" stroke-width="1.5"></path><path d="M429.17 148.67L551.32 156.3" stroke="rgba(227, 227, 227, 0.6)" stroke-width="1.5"></path><path d="M454.01 272.67L454.01 272.67" stroke="rgba(227, 227, 227, 0.6)" stroke-width="1.5"></path><path d="M454.01 272.67L435.08 346.46" stroke="rgba(227, 227, 227, 0.6)" stroke-width="1.5"></path><path d="M435.08 346.46L435.08 346.46" stroke="rgba(227, 227, 227, 0.6)" stroke-width="1.5"></path><path d="M461.01 438.2L461.01 438.2" stroke="rgba(227, 227, 227, 0.6)" stroke-width="1.5"></path><path d="M461.01 438.2L435.08 346.46" stroke="rgba(227, 227, 227, 0.6)" stroke-width="1.5"></path><path d="M461.01 438.2L461.08 536.75" stroke="rgba(227, 227, 227, 0.6)" stroke-width="1.5"></path><path d="M461.01 438.2L358.06 468.87" stroke="rgba(227, 227, 227, 0.6)" stroke-width="1.5"></path><path d="M461.01 438.2L571.59 459.19" stroke="rgba(227, 227, 227, 0.6)" stroke-width="1.5"></path><path d="M461.01 438.2L558.02 341.72" stroke="rgba(227, 227, 227, 0.6)" stroke-width="1.5"></path><path d="M461.08 536.75L461.08 536.75" stroke="rgba(227, 227, 227, 0.6)" stroke-width="1.5"></path><path d="M461.08 536.75L455.59 643.18" stroke="rgba(227, 227, 227, 0.6)" stroke-width="1.5"></path><path d="M461.08 536.75L569.15 525.64" stroke="rgba(227, 227, 227, 0.6)" stroke-width="1.5"></path><path d="M455.59 643.18L455.59 643.18" stroke="rgba(227, 227, 227, 0.6)" stroke-width="1.5"></path><path d="M455.59 643.18L351.81 653.8" stroke="rgba(227, 227, 227, 0.6)" stroke-width="1.5"></path><path d="M455.59 643.18L470.31 755.77" stroke="rgba(227, 227, 227, 0.6)" stroke-width="1.5"></path><path d="M455.59 643.18L570.35 652.21" stroke="rgba(227, 227, 227, 0.6)" stroke-width="1.5"></path><path d="M455.59 643.18L349.34 739.72" stroke="rgba(227, 227, 227, 0.6)" stroke-width="1.5"></path><path d="M470.31 755.77L470.31 755.77" stroke="rgba(227, 227, 227, 0.6)" stroke-width="1.5"></path><path d="M470.31 755.77L537.16 772.82" stroke="rgba(227, 227, 227, 0.6)" stroke-width="1.5"></path><path d="M470.31 755.77L452.64 862.89" stroke="rgba(227, 227, 227, 0.6)" stroke-width="1.5"></path><path d="M470.31 755.77L349.34 739.72" stroke="rgba(227, 227, 227, 0.6)" stroke-width="1.5"></path><path d="M470.31 755.77L559.21 855.7" stroke="rgba(227, 227, 227, 0.6)" stroke-width="1.5"></path><path d="M470.31 755.77L570.35 652.21" stroke="rgba(227, 227, 227, 0.6)" stroke-width="1.5"></path><path d="M452.64 862.89L452.64 862.89" stroke="rgba(227, 227, 227, 0.6)" stroke-width="1.5"></path><path d="M452.64 862.89L559.21 855.7" stroke="rgba(227, 227, 227, 0.6)" stroke-width="1.5"></path><path d="M452.64 862.89L537.16 772.82" stroke="rgba(227, 227, 227, 0.6)" stroke-width="1.5"></path><path d="M452.64 862.89L349.34 739.72" stroke="rgba(227, 227, 227, 0.6)" stroke-width="1.5"></path><path d="M535.92 51.97L535.92 51.97" stroke="rgba(227, 227, 227, 0.6)" stroke-width="1.5"></path><path d="M535.92 51.97L551.32 156.3" stroke="rgba(227, 227, 227, 0.6)" stroke-width="1.5"></path><path d="M535.92 51.97L429.17 148.67" stroke="rgba(227, 227, 227, 0.6)" stroke-width="1.5"></path><path d="M551.32 156.3L551.32 156.3" stroke="rgba(227, 227, 227, 0.6)" stroke-width="1.5"></path><path d="M551.32 156.3L573.52 268.12" stroke="rgba(227, 227, 227, 0.6)" stroke-width="1.5"></path><path d="M573.52 268.12L573.52 268.12" stroke="rgba(227, 227, 227, 0.6)" stroke-width="1.5"></path><path d="M573.52 268.12L558.02 341.72" stroke="rgba(227, 227, 227, 0.6)" stroke-width="1.5"></path><path d="M573.52 268.12L454.01 272.67" stroke="rgba(227, 227, 227, 0.6)" stroke-width="1.5"></path><path d="M573.52 268.12L435.08 346.46" stroke="rgba(227, 227, 227, 0.6)" stroke-width="1.5"></path><path d="M558.02 341.72L558.02 341.72" stroke="rgba(227, 227, 227, 0.6)" stroke-width="1.5"></path><path d="M558.02 341.72L571.59 459.19" stroke="rgba(227, 227, 227, 0.6)" stroke-width="1.5"></path><path d="M558.02 341.72L435.08 346.46" stroke="rgba(227, 227, 227, 0.6)" stroke-width="1.5"></path><path d="M558.02 341.72L454.01 272.67" stroke="rgba(227, 227, 227, 0.6)" stroke-width="1.5"></path><path d="M571.59 459.19L571.59 459.19" stroke="rgba(227, 227, 227, 0.6)" stroke-width="1.5"></path><path d="M571.59 459.19L569.15 525.64" stroke="rgba(227, 227, 227, 0.6)" stroke-width="1.5"></path><path d="M569.15 525.64L569.15 525.64" stroke="rgba(227, 227, 227, 0.6)" stroke-width="1.5"></path><path d="M570.35 652.21L570.35 652.21" stroke="rgba(227, 227, 227, 0.6)" stroke-width="1.5"></path><path d="M570.35 652.21L537.16 772.82" stroke="rgba(227, 227, 227, 0.6)" stroke-width="1.5"></path><path d="M570.35 652.21L569.15 525.64" stroke="rgba(227, 227, 227, 0.6)" stroke-width="1.5"></path><path d="M570.35 652.21L461.08 536.75" stroke="rgba(227, 227, 227, 0.6)" stroke-width="1.5"></path><path d="M570.35 652.21L571.59 459.19" stroke="rgba(227, 227, 227, 0.6)" stroke-width="1.5"></path><path d="M537.16 772.82L537.16 772.82" stroke="rgba(227, 227, 227, 0.6)" stroke-width="1.5"></path><path d="M537.16 772.82L559.21 855.7" stroke="rgba(227, 227, 227, 0.6)" stroke-width="1.5"></path><path d="M559.21 855.7L559.21 855.7" stroke="rgba(227, 227, 227, 0.6)" stroke-width="1.5"></path><path d="M559.21 855.7L356.47 869.96" stroke="rgba(227, 227, 227, 0.6)" stroke-width="1.5"></path><circle r="5" cx="-51.25" cy="557.03" fill="rgba(227, 227, 227, 0.6)"></circle><circle r="5" cx="-49.51" cy="669.8" fill="rgba(227, 227, 227, 0.6)"></circle><circle r="5" cx="-32.42" cy="725.09" fill="rgba(227, 227, 227, 0.6)"></circle><circle r="5" cx="-35.57" cy="838.06" fill="rgba(227, 227, 227, 0.6)"></circle><circle r="5" cx="57.76" cy="570.39" fill="rgba(227, 227, 227, 0.6)"></circle><circle r="5" cx="69.58" cy="671.35" fill="rgba(227, 227, 227, 0.6)"></circle><circle r="5" cx="71.35" cy="751.18" fill="rgba(227, 227, 227, 0.6)"></circle><circle r="5" cx="57.28" cy="836.09" fill="rgba(227, 227, 227, 0.6)"></circle><circle r="5" cx="140.61" cy="446.03" fill="rgba(227, 227, 227, 0.6)"></circle><circle r="5" cx="130.15" cy="566.71" fill="rgba(227, 227, 227, 0.6)"></circle><circle r="5" cx="173.51" cy="629.59" fill="rgba(227, 227, 227, 0.6)"></circle><circle r="5" cx="154" cy="735.36" fill="rgba(227, 227, 227, 0.6)"></circle><circle r="5" cx="144.13" cy="867.37" fill="rgba(227, 227, 227, 0.6)"></circle><circle r="5" cx="238.78" cy="366.99" fill="rgba(227, 227, 227, 0.6)"></circle><circle r="5" cx="250.65" cy="567.85" fill="rgba(227, 227, 227, 0.6)"></circle><circle r="5" cx="249.93" cy="674.67" fill="rgba(227, 227, 227, 0.6)"></circle><circle r="5" cx="258.2" cy="761.52" fill="rgba(227, 227, 227, 0.6)"></circle><circle r="5" cx="267.47" cy="831.39" fill="rgba(227, 227, 227, 0.6)"></circle><circle r="5" cx="341.28" cy="-73.26" fill="rgba(227, 227, 227, 0.6)"></circle><circle r="5" cx="334.09" cy="44.04" fill="rgba(227, 227, 227, 0.6)"></circle><circle r="5" cx="347.78" cy="136.67" fill="rgba(227, 227, 227, 0.6)"></circle><circle r="5" cx="341.41" cy="269.38" fill="rgba(227, 227, 227, 0.6)"></circle><circle r="5" cx="356.12" cy="334.44" fill="rgba(227, 227, 227, 0.6)"></circle><circle r="5" cx="358.06" cy="468.87" fill="rgba(227, 227, 227, 0.6)"></circle><circle r="5" cx="326.83" cy="534.06" fill="rgba(227, 227, 227, 0.6)"></circle><circle r="5" cx="351.81" cy="653.8" fill="rgba(227, 227, 227, 0.6)"></circle><circle r="5" cx="349.34" cy="739.72" fill="rgba(227, 227, 227, 0.6)"></circle><circle r="5" cx="356.47" cy="869.96" fill="rgba(227, 227, 227, 0.6)"></circle><circle r="5" cx="452.65" cy="64.82" fill="rgba(227, 227, 227, 0.6)"></circle><circle r="5" cx="429.17" cy="148.67" fill="rgba(227, 227, 227, 0.6)"></circle><circle r="5" cx="454.01" cy="272.67" fill="rgba(227, 227, 227, 0.6)"></circle><circle r="5" cx="435.08" cy="346.46" fill="rgba(227, 227, 227, 0.6)"></circle><circle r="5" cx="461.01" cy="438.2" fill="rgba(227, 227, 227, 0.6)"></circle><circle r="5" cx="461.08" cy="536.75" fill="rgba(227, 227, 227, 0.6)"></circle><circle r="5" cx="455.59" cy="643.18" fill="rgba(227, 227, 227, 0.6)"></circle><circle r="5" cx="470.31" cy="755.77" fill="rgba(227, 227, 227, 0.6)"></circle><circle r="5" cx="452.64" cy="862.89" fill="rgba(227, 227, 227, 0.6)"></circle><circle r="5" cx="535.92" cy="51.97" fill="rgba(227, 227, 227, 0.6)"></circle><circle r="5" cx="551.32" cy="156.3" fill="rgba(227, 227, 227, 0.6)"></circle><circle r="5" cx="573.52" cy="268.12" fill="rgba(227, 227, 227, 0.6)"></circle><circle r="5" cx="558.02" cy="341.72" fill="rgba(227, 227, 227, 0.6)"></circle><circle r="5" cx="571.59" cy="459.19" fill="rgba(227, 227, 227, 0.6)"></circle><circle r="5" cx="569.15" cy="525.64" fill="rgba(227, 227, 227, 0.6)"></circle><circle r="5" cx="570.35" cy="652.21" fill="rgba(227, 227, 227, 0.6)"></circle><circle r="5" cx="537.16" cy="772.82" fill="rgba(227, 227, 227, 0.6)"></circle><circle r="5" cx="559.21" cy="855.7" fill="rgba(227, 227, 227, 0.6)"></circle><path d="M-57.68 828.31L-57.68 828.31" stroke="hsla(0, 0%, 100%, 0.47)" stroke-width="1.5"></path><path d="M-57.68 828.31L37.57 833.04" stroke="hsla(0, 0%, 100%, 0.47)" stroke-width="1.5"></path><path d="M-57.68 828.31L26.33 739.4" stroke="hsla(0, 0%, 100%, 0.47)" stroke-width="1.5"></path><path d="M-57.68 828.31L43.46 661.01" stroke="hsla(0, 0%, 100%, 0.47)" stroke-width="1.5"></path><path d="M-57.68 828.31L136.25 729.75" stroke="hsla(0, 0%, 100%, 0.47)" stroke-width="1.5"></path><path d="M-57.68 828.31L162.44 840.69" stroke="hsla(0, 0%, 100%, 0.47)" stroke-width="1.5"></path><path d="M43.46 661.01L43.46 661.01" stroke="hsla(0, 0%, 100%, 0.47)" stroke-width="1.5"></path><path d="M43.46 661.01L26.33 739.4" stroke="hsla(0, 0%, 100%, 0.47)" stroke-width="1.5"></path><path d="M43.46 661.01L148.8 674.48" stroke="hsla(0, 0%, 100%, 0.47)" stroke-width="1.5"></path><path d="M339.17 643.24L339.17 643.24" stroke="hsla(0, 0%, 100%, 0.47)" stroke-width="1.5"></path><path d="M339.17 643.24L273.25 640.02" stroke="hsla(0, 0%, 100%, 0.47)" stroke-width="1.5"></path><path d="M339.17 643.24L330.29 564.99" stroke="hsla(0, 0%, 100%, 0.47)" stroke-width="1.5"></path><path d="M339.17 643.24L358.34 744.45" stroke="hsla(0, 0%, 100%, 0.47)" stroke-width="1.5"></path><path d="M339.17 643.24L442.85 672.01" stroke="hsla(0, 0%, 100%, 0.47)" stroke-width="1.5"></path><path d="M339.17 643.24L259.4 739.16" stroke="hsla(0, 0%, 100%, 0.47)" stroke-width="1.5"></path><path d="M459.91 354.18L459.91 354.18" stroke="hsla(0, 0%, 100%, 0.47)" stroke-width="1.5"></path><path d="M459.91 354.18L467.35 266.83" stroke="hsla(0, 0%, 100%, 0.47)" stroke-width="1.5"></path><path d="M442.85 672.01L442.85 672.01" stroke="hsla(0, 0%, 100%, 0.47)" stroke-width="1.5"></path><path d="M442.85 672.01L469.03 737.38" stroke="hsla(0, 0%, 100%, 0.47)" stroke-width="1.5"></path><path d="M442.85 672.01L546.4 638.84" stroke="hsla(0, 0%, 100%, 0.47)" stroke-width="1.5"></path><path d="M442.85 672.01L358.34 744.45" stroke="hsla(0, 0%, 100%, 0.47)" stroke-width="1.5"></path><path d="M525.31 472.23L525.31 472.23" stroke="hsla(0, 0%, 100%, 0.47)" stroke-width="1.5"></path><path d="M525.31 472.23L568.11 534.42" stroke="hsla(0, 0%, 100%, 0.47)" stroke-width="1.5"></path><path d="M525.31 472.23L446.7 527.8" stroke="hsla(0, 0%, 100%, 0.47)" stroke-width="1.5"></path><path d="M26.33 739.4L26.33 739.4" stroke="hsla(0, 0%, 100%, 0.47)" stroke-width="1.5"></path><path d="M26.33 739.4L37.57 833.04" stroke="hsla(0, 0%, 100%, 0.47)" stroke-width="1.5"></path><path d="M26.33 739.4L136.25 729.75" stroke="hsla(0, 0%, 100%, 0.47)" stroke-width="1.5"></path><path d="M26.33 739.4L148.8 674.48" stroke="hsla(0, 0%, 100%, 0.47)" stroke-width="1.5"></path><path d="M37.57 833.04L37.57 833.04" stroke="hsla(0, 0%, 100%, 0.47)" stroke-width="1.5"></path><path d="M37.57 833.04L162.44 840.69" stroke="hsla(0, 0%, 100%, 0.47)" stroke-width="1.5"></path><path d="M148.8 674.48L148.8 674.48" stroke="hsla(0, 0%, 100%, 0.47)" stroke-width="1.5"></path><path d="M148.8 674.48L136.25 729.75" stroke="hsla(0, 0%, 100%, 0.47)" stroke-width="1.5"></path><path d="M148.8 674.48L259.4 739.16" stroke="hsla(0, 0%, 100%, 0.47)" stroke-width="1.5"></path><path d="M136.25 729.75L136.25 729.75" stroke="hsla(0, 0%, 100%, 0.47)" stroke-width="1.5"></path><path d="M136.25 729.75L162.44 840.69" stroke="hsla(0, 0%, 100%, 0.47)" stroke-width="1.5"></path><path d="M136.25 729.75L43.46 661.01" stroke="hsla(0, 0%, 100%, 0.47)" stroke-width="1.5"></path><path d="M136.25 729.75L259.4 739.16" stroke="hsla(0, 0%, 100%, 0.47)" stroke-width="1.5"></path><path d="M136.25 729.75L37.57 833.04" stroke="hsla(0, 0%, 100%, 0.47)" stroke-width="1.5"></path><path d="M162.44 840.69L162.44 840.69" stroke="hsla(0, 0%, 100%, 0.47)" stroke-width="1.5"></path><path d="M162.44 840.69L268.21 836.16" stroke="hsla(0, 0%, 100%, 0.47)" stroke-width="1.5"></path><path d="M162.44 840.69L259.4 739.16" stroke="hsla(0, 0%, 100%, 0.47)" stroke-width="1.5"></path><path d="M162.44 840.69L148.8 674.48" stroke="hsla(0, 0%, 100%, 0.47)" stroke-width="1.5"></path><path d="M242.8 534.36L242.8 534.36" stroke="hsla(0, 0%, 100%, 0.47)" stroke-width="1.5"></path><path d="M242.8 534.36L330.29 564.99" stroke="hsla(0, 0%, 100%, 0.47)" stroke-width="1.5"></path><path d="M242.8 534.36L273.25 640.02" stroke="hsla(0, 0%, 100%, 0.47)" stroke-width="1.5"></path><path d="M242.8 534.36L339.17 643.24" stroke="hsla(0, 0%, 100%, 0.47)" stroke-width="1.5"></path><path d="M242.8 534.36L358.11 429.41" stroke="hsla(0, 0%, 100%, 0.47)" stroke-width="1.5"></path><path d="M273.25 640.02L273.25 640.02" stroke="hsla(0, 0%, 100%, 0.47)" stroke-width="1.5"></path><path d="M273.25 640.02L330.29 564.99" stroke="hsla(0, 0%, 100%, 0.47)" stroke-width="1.5"></path><path d="M273.25 640.02L259.4 739.16" stroke="hsla(0, 0%, 100%, 0.47)" stroke-width="1.5"></path><path d="M273.25 640.02L148.8 674.48" stroke="hsla(0, 0%, 100%, 0.47)" stroke-width="1.5"></path><path d="M273.25 640.02L358.34 744.45" stroke="hsla(0, 0%, 100%, 0.47)" stroke-width="1.5"></path><path d="M259.4 739.16L259.4 739.16" stroke="hsla(0, 0%, 100%, 0.47)" stroke-width="1.5"></path><path d="M259.4 739.16L268.21 836.16" stroke="hsla(0, 0%, 100%, 0.47)" stroke-width="1.5"></path><path d="M259.4 739.16L358.34 744.45" stroke="hsla(0, 0%, 100%, 0.47)" stroke-width="1.5"></path><path d="M268.21 836.16L268.21 836.16" stroke="hsla(0, 0%, 100%, 0.47)" stroke-width="1.5"></path><path d="M268.21 836.16L343.02 834.87" stroke="hsla(0, 0%, 100%, 0.47)" stroke-width="1.5"></path><path d="M366.55 337.01L366.55 337.01" stroke="hsla(0, 0%, 100%, 0.47)" stroke-width="1.5"></path><path d="M366.55 337.01L358.11 429.41" stroke="hsla(0, 0%, 100%, 0.47)" stroke-width="1.5"></path><path d="M366.55 337.01L459.91 354.18" stroke="hsla(0, 0%, 100%, 0.47)" stroke-width="1.5"></path><path d="M358.11 429.41L358.11 429.41" stroke="hsla(0, 0%, 100%, 0.47)" stroke-width="1.5"></path><path d="M358.11 429.41L459.91 354.18" stroke="hsla(0, 0%, 100%, 0.47)" stroke-width="1.5"></path><path d="M358.11 429.41L446.7 527.8" stroke="hsla(0, 0%, 100%, 0.47)" stroke-width="1.5"></path><path d="M358.11 429.41L330.29 564.99" stroke="hsla(0, 0%, 100%, 0.47)" stroke-width="1.5"></path><path d="M330.29 564.99L330.29 564.99" stroke="hsla(0, 0%, 100%, 0.47)" stroke-width="1.5"></path><path d="M330.29 564.99L446.7 527.8" stroke="hsla(0, 0%, 100%, 0.47)" stroke-width="1.5"></path><path d="M330.29 564.99L442.85 672.01" stroke="hsla(0, 0%, 100%, 0.47)" stroke-width="1.5"></path><path d="M358.34 744.45L358.34 744.45" stroke="hsla(0, 0%, 100%, 0.47)" stroke-width="1.5"></path><path d="M358.34 744.45L343.02 834.87" stroke="hsla(0, 0%, 100%, 0.47)" stroke-width="1.5"></path><path d="M343.02 834.87L343.02 834.87" stroke="hsla(0, 0%, 100%, 0.47)" stroke-width="1.5"></path><path d="M425.8 -53.41L425.8 -53.41" stroke="hsla(0, 0%, 100%, 0.47)" stroke-width="1.5"></path><path d="M425.8 -53.41L453.36 57.18" stroke="hsla(0, 0%, 100%, 0.47)" stroke-width="1.5"></path><path d="M425.8 -53.41L550.61 -29.08" stroke="hsla(0, 0%, 100%, 0.47)" stroke-width="1.5"></path><path d="M425.8 -53.41L453.05 148.66" stroke="hsla(0, 0%, 100%, 0.47)" stroke-width="1.5"></path><path d="M425.8 -53.41L562.83 150.66" stroke="hsla(0, 0%, 100%, 0.47)" stroke-width="1.5"></path><path d="M453.36 57.18L453.36 57.18" stroke="hsla(0, 0%, 100%, 0.47)" stroke-width="1.5"></path><path d="M453.36 57.18L453.05 148.66" stroke="hsla(0, 0%, 100%, 0.47)" stroke-width="1.5"></path><path d="M453.36 57.18L550.61 -29.08" stroke="hsla(0, 0%, 100%, 0.47)" stroke-width="1.5"></path><path d="M453.05 148.66L453.05 148.66" stroke="hsla(0, 0%, 100%, 0.47)" stroke-width="1.5"></path><path d="M453.05 148.66L562.83 150.66" stroke="hsla(0, 0%, 100%, 0.47)" stroke-width="1.5"></path><path d="M453.05 148.66L467.35 266.83" stroke="hsla(0, 0%, 100%, 0.47)" stroke-width="1.5"></path><path d="M453.05 148.66L545.2 241.28" stroke="hsla(0, 0%, 100%, 0.47)" stroke-width="1.5"></path><path d="M467.35 266.83L467.35 266.83" stroke="hsla(0, 0%, 100%, 0.47)" stroke-width="1.5"></path><path d="M467.35 266.83L545.2 241.28" stroke="hsla(0, 0%, 100%, 0.47)" stroke-width="1.5"></path><path d="M467.35 266.83L366.55 337.01" stroke="hsla(0, 0%, 100%, 0.47)" stroke-width="1.5"></path><path d="M467.35 266.83L561.65 357.7" stroke="hsla(0, 0%, 100%, 0.47)" stroke-width="1.5"></path><path d="M446.7 527.8L446.7 527.8" stroke="hsla(0, 0%, 100%, 0.47)" stroke-width="1.5"></path><path d="M446.7 527.8L568.11 534.42" stroke="hsla(0, 0%, 100%, 0.47)" stroke-width="1.5"></path><path d="M469.03 737.38L469.03 737.38" stroke="hsla(0, 0%, 100%, 0.47)" stroke-width="1.5"></path><path d="M469.03 737.38L533.67 748.51" stroke="hsla(0, 0%, 100%, 0.47)" stroke-width="1.5"></path><path d="M469.03 737.38L358.34 744.45" stroke="hsla(0, 0%, 100%, 0.47)" stroke-width="1.5"></path><path d="M469.03 737.38L546.4 638.84" stroke="hsla(0, 0%, 100%, 0.47)" stroke-width="1.5"></path><path d="M469.03 737.38L526.33 874.11" stroke="hsla(0, 0%, 100%, 0.47)" stroke-width="1.5"></path><path d="M550.61 -29.08L550.61 -29.08" stroke="hsla(0, 0%, 100%, 0.47)" stroke-width="1.5"></path><path d="M550.61 -29.08L562.83 150.66" stroke="hsla(0, 0%, 100%, 0.47)" stroke-width="1.5"></path><path d="M550.61 -29.08L453.05 148.66" stroke="hsla(0, 0%, 100%, 0.47)" stroke-width="1.5"></path><path d="M550.61 -29.08L545.2 241.28" stroke="hsla(0, 0%, 100%, 0.47)" stroke-width="1.5"></path><path d="M550.61 -29.08L467.35 266.83" stroke="hsla(0, 0%, 100%, 0.47)" stroke-width="1.5"></path><path d="M562.83 150.66L562.83 150.66" stroke="hsla(0, 0%, 100%, 0.47)" stroke-width="1.5"></path><path d="M562.83 150.66L545.2 241.28" stroke="hsla(0, 0%, 100%, 0.47)" stroke-width="1.5"></path><path d="M545.2 241.28L545.2 241.28" stroke="hsla(0, 0%, 100%, 0.47)" stroke-width="1.5"></path><path d="M545.2 241.28L561.65 357.7" stroke="hsla(0, 0%, 100%, 0.47)" stroke-width="1.5"></path><path d="M545.2 241.28L459.91 354.18" stroke="hsla(0, 0%, 100%, 0.47)" stroke-width="1.5"></path><path d="M561.65 357.7L561.65 357.7" stroke="hsla(0, 0%, 100%, 0.47)" stroke-width="1.5"></path><path d="M561.65 357.7L459.91 354.18" stroke="hsla(0, 0%, 100%, 0.47)" stroke-width="1.5"></path><path d="M561.65 357.7L525.31 472.23" stroke="hsla(0, 0%, 100%, 0.47)" stroke-width="1.5"></path><path d="M568.11 534.42L568.11 534.42" stroke="hsla(0, 0%, 100%, 0.47)" stroke-width="1.5"></path><path d="M568.11 534.42L546.4 638.84" stroke="hsla(0, 0%, 100%, 0.47)" stroke-width="1.5"></path><path d="M546.4 638.84L546.4 638.84" stroke="hsla(0, 0%, 100%, 0.47)" stroke-width="1.5"></path><path d="M546.4 638.84L533.67 748.51" stroke="hsla(0, 0%, 100%, 0.47)" stroke-width="1.5"></path><path d="M546.4 638.84L446.7 527.8" stroke="hsla(0, 0%, 100%, 0.47)" stroke-width="1.5"></path><path d="M533.67 748.51L533.67 748.51" stroke="hsla(0, 0%, 100%, 0.47)" stroke-width="1.5"></path><path d="M533.67 748.51L442.85 672.01" stroke="hsla(0, 0%, 100%, 0.47)" stroke-width="1.5"></path><path d="M526.33 874.11L526.33 874.11" stroke="hsla(0, 0%, 100%, 0.47)" stroke-width="1.5"></path><path d="M526.33 874.11L533.67 748.51" stroke="hsla(0, 0%, 100%, 0.47)" stroke-width="1.5"></path><circle r="25" cx="-57.68" cy="828.31" fill="url(#SvgjsRadialGradient1011)"></circle><circle r="25" cx="43.46" cy="661.01" fill="url(#SvgjsRadialGradient1011)"></circle><circle r="25" cx="339.17" cy="643.24" fill="url(#SvgjsRadialGradient1011)"></circle><circle r="25" cx="459.91" cy="354.18" fill="url(#SvgjsRadialGradient1011)"></circle><circle r="25" cx="442.85" cy="672.01" fill="url(#SvgjsRadialGradient1011)"></circle><circle r="25" cx="525.31" cy="472.23" fill="url(#SvgjsRadialGradient1011)"></circle><circle r="5" cx="26.33" cy="739.4" fill="rgba(255, 255, 255, 0.735)"></circle><circle r="5" cx="37.57" cy="833.04" fill="rgba(255, 255, 255, 0.735)"></circle><circle r="5" cx="148.8" cy="674.48" fill="rgba(255, 255, 255, 0.735)"></circle><circle r="5" cx="136.25" cy="729.75" fill="rgba(255, 255, 255, 0.735)"></circle><circle r="5" cx="162.44" cy="840.69" fill="rgba(255, 255, 255, 0.735)"></circle><circle r="5" cx="242.8" cy="534.36" fill="rgba(255, 255, 255, 0.735)"></circle><circle r="5" cx="273.25" cy="640.02" fill="rgba(255, 255, 255, 0.735)"></circle><circle r="5" cx="259.4" cy="739.16" fill="rgba(255, 255, 255, 0.735)"></circle><circle r="5" cx="268.21" cy="836.16" fill="rgba(255, 255, 255, 0.735)"></circle><circle r="5" cx="366.55" cy="337.01" fill="rgba(255, 255, 255, 0.735)"></circle><circle r="5" cx="358.11" cy="429.41" fill="rgba(255, 255, 255, 0.735)"></circle><circle r="5" cx="330.29" cy="564.99" fill="rgba(255, 255, 255, 0.735)"></circle><circle r="5" cx="358.34" cy="744.45" fill="rgba(255, 255, 255, 0.735)"></circle><circle r="5" cx="343.02" cy="834.87" fill="rgba(255, 255, 255, 0.735)"></circle><circle r="5" cx="425.8" cy="-53.41" fill="rgba(255, 255, 255, 0.735)"></circle><circle r="5" cx="453.36" cy="57.18" fill="rgba(255, 255, 255, 0.735)"></circle><circle r="5" cx="453.05" cy="148.66" fill="rgba(255, 255, 255, 0.735)"></circle><circle r="5" cx="467.35" cy="266.83" fill="rgba(255, 255, 255, 0.735)"></circle><circle r="5" cx="446.7" cy="527.8" fill="rgba(255, 255, 255, 0.735)"></circle><circle r="5" cx="469.03" cy="737.38" fill="rgba(255, 255, 255, 0.735)"></circle><circle r="5" cx="550.61" cy="-29.08" fill="rgba(255, 255, 255, 0.735)"></circle><circle r="5" cx="562.83" cy="150.66" fill="rgba(255, 255, 255, 0.735)"></circle><circle r="5" cx="545.2" cy="241.28" fill="rgba(255, 255, 255, 0.735)"></circle><circle r="5" cx="561.65" cy="357.7" fill="rgba(255, 255, 255, 0.735)"></circle><circle r="5" cx="568.11" cy="534.42" fill="rgba(255, 255, 255, 0.735)"></circle><circle r="5" cx="546.4" cy="638.84" fill="rgba(255, 255, 255, 0.735)"></circle><circle r="5" cx="533.67" cy="748.51" fill="rgba(255, 255, 255, 0.735)"></circle><circle r="5" cx="526.33" cy="874.11" fill="rgba(255, 255, 255, 0.735)"></circle></g><defs><mask id="SvgjsMask1010"><rect width="500" height="800" fill="#ffffff"></rect></mask><radialGradient id="SvgjsRadialGradient1011"><stop stop-color="#ffffff" offset="0.1"></stop><stop stop-color="rgba(255, 255, 255, 0.47)" offset="0.2"></stop><stop stop-color="rgba(255, 255, 255, 0)" offset="1"></stop></radialGradient></defs></svg>