<svg xmlns="http://www.w3.org/2000/svg" version="1.1" xmlns:xlink="http://www.w3.org/1999/xlink" xmlns:svgjs="http://svgjs.com/svgjs" width="1440" height="560" preserveAspectRatio="none" viewBox="0 0 1440 560"><g mask="url(&quot;#SvgjsMask1010&quot;)" fill="none"><path d="M100 140C99.32 108.01 24.14 145.22 0 111.43C-25.86 75.22 -31.02 24.69 0 0C38.98 -31.02 70 0 140 0C210 0 210 0 280 0C350 0 350 0 420 0C490 0 490 0 560 0C630 0 630 0 700 0C770 0 770 0 840 0C910 0 910 0 980 0C1050 0 1050 0 1120 0C1178.51 0 1211.96 -31.85 1237.01 0C1267.02 38.15 1221.76 73.34 1230.11 140C1233.26 165.14 1241.49 183.61 1260 183.61C1285.35 183.61 1307.33 171.29 1317.83 140C1338.13 79.49 1295.26 44.88 1321.6 0C1336.35 -25.12 1360.8 0 1400 0C1470 0 1505 -35 1540 0C1575 35 1540 70 1540 140C1540 161 1548.59 163.6 1540 182C1515.92 233.6 1506.03 230.17 1474.67 280C1436.03 341.39 1434.73 341.29 1400 404.44C1396.23 411.29 1397.67 412.63 1397.67 420C1397.67 421.49 1398.92 420.99 1400 422.15C1464.08 490.99 1528 518.98 1528 560C1528 587.91 1464 560 1400 560C1330 560 1330 560 1260 560C1190 560 1190 560 1120 560C1050 560 1050 560 980 560C910 560 910 560 840 560C770 560 770 560 700 560C661.7 560 654.55 575.9 623.4 560C584.55 540.16 600.58 496.13 560 488.51C498.88 477.04 485.84 496.69 420 521.82C392.18 532.44 400.41 552.44 372.68 560C330.41 571.53 326.34 560 280 560C210 560 210 560 140 560C70 560 35 595 0 560C-35 525 0 490 0 420C0 351.27 -1.74 350.38 0 282.55C0.06 280.38 2.33 281.8 3.59 280C52.33 210.52 101.11 192.29 100 140" stroke="rgba(243, 243, 243, 0.08)" stroke-width="2"></path><path d="M420 89.44C371.74 100.58 331.22 104.47 331.22 140C331.22 194.75 362.96 226.15 420 270C454.01 296.15 466.7 274.73 513.33 280C536.7 282.64 538.44 285.83 560 285.83C562.85 285.83 560.81 282.8 562.15 280C595.81 209.89 630.69 201.66 630 140C629.61 105.24 600.44 96.91 560 87.17C495.44 71.63 486.13 74.17 420 89.44" stroke="rgba(243, 243, 243, 0.08)" stroke-width="2"></path><path d="M840 257.21C827.74 258.17 826.2 269.46 826.2 280C826.2 287.66 830.71 291.77 840 293.61C907.61 306.99 912.13 314.97 980 310.43C1013.95 308.16 1043.64 291.08 1043.64 280C1043.64 269.83 1012.14 271.53 980 267.93C910.32 260.13 904.64 252.14 840 257.21" stroke="rgba(243, 243, 243, 0.08)" stroke-width="2"></path><path d="M140 367.21C111.69 367.51 98.18 391.6 98.18 420C98.18 458.25 107.11 499.97 140 500.5C198.02 501.43 210.5 462.28 280 422.92C281.57 422.03 282.15 421.35 282.15 420C282.15 418.92 281.36 418.56 280 418.06C210.28 392.17 202.6 366.54 140 367.21" stroke="rgba(243, 243, 243, 0.08)" stroke-width="2"></path><path d="M1120 329.41C1100.11 329.41 1066.9 376.28 1066.9 420C1066.9 456.58 1099.54 490 1120 490C1137.09 490 1142 455.36 1142 420C1142 375.07 1137.66 329.41 1120 329.41" stroke="rgba(243, 243, 243, 0.08)" stroke-width="2"></path><path d="M140 53.53C73.26 64.33 54.5 60.84 0 40C-15.5 34.07 -15.56 4.44 0 0C54.44 -15.56 70 0 140 0C193.53 0 247.06 -12.64 247.06 0C247.06 14.13 196.79 44.33 140 53.53" stroke="rgba(243, 243, 243, 0.08)" stroke-width="2"></path><path d="M420 40.83C359.69 35.88 302.4 10.5 302.4 0C302.4 -9.92 361.2 0 420 0C490 0 490 0 560 0C630 0 630 0 700 0C737.84 0 746.62 -17.65 775.68 0C816.62 24.85 799.02 83.13 840 85C901.18 87.79 911.21 48.71 980 9.33C985.45 6.21 982.36 0.41 988.48 0C1052.36 -4.26 1054.24 0 1120 0C1152.39 0 1173.59 -22.13 1184.78 0C1208.99 47.87 1208.15 76.08 1190.79 140C1175.76 195.3 1168.29 222.95 1120 238.44C1062.9 256.75 1049.95 223.24 980 207.59C909.95 191.92 894.94 156.22 840 175.81C793.39 192.43 776.9 231.84 776.9 280C776.9 315.04 805.03 315.36 840 342.22C896.15 385.36 905.8 375.42 959.15 420C975.8 433.91 967.17 441.16 980 459.2C1016.97 511.16 1058.75 528.81 1058.75 560C1058.75 579.21 1019.38 560 980 560C922.72 560 921.52 565.1 865.45 560C851.52 558.73 853.63 547.27 840 547.27C805.91 547.27 805.28 556.79 770 560C735.28 563.16 735 560 700 560C694.71 560 693.01 563.76 689.43 560C626.51 493.76 587.43 497.88 567 420C550.71 357.88 582.92 345.69 616 280C649.42 213.64 651.27 209.32 700 155.91C715.14 139.32 743.75 150.38 743.75 140C743.75 128.42 721.81 126.11 700 112C629.93 66.67 635.8 40.4 560 21.13C495.8 4.81 488.49 46.45 420 40.83" stroke="rgba(243, 243, 243, 0.08)" stroke-width="2"></path><path d="M1393.91 140C1393.91 129.41 1395.76 118.46 1400 118.46C1404.64 118.46 1411.67 129.74 1411.67 140C1411.67 147.88 1404.8 154.74 1400 154.74C1395.92 154.74 1393.91 147.55 1393.91 140" stroke="rgba(243, 243, 243, 0.08)" stroke-width="2"></path><path d="M93.33 280C93.33 256.58 110.4 244.71 140 226.47C203.73 187.21 220.74 151.4 280 165C337.4 178.17 325.76 223.27 373.33 280C395.76 306.74 392.64 310.64 420 331.94C482.56 380.64 553.17 380.91 553.17 420C553.17 455.97 483.47 482.05 420 482.05C374.88 482.05 376.64 452.69 336 420C306.64 396.38 312.49 387.7 280 369.44C214.49 332.62 208.42 342.62 140 309.84C115.09 297.9 93.33 298.27 93.33 280" stroke="rgba(243, 243, 243, 0.08)" stroke-width="2"></path><path d="M1193.89 280C1205.93 248.3 1226.7 240.98 1260 240.98C1294.76 240.98 1315.58 247.46 1330 280C1355.25 336.97 1317.3 358.3 1339.33 420C1352.3 456.3 1370.97 446.69 1400 476C1440.3 516.69 1478 535.01 1478 560C1478 577.01 1439 560 1400 560C1330 560 1330 560 1260 560C1206.61 560 1167.62 589.66 1153.22 560C1133.62 519.66 1181.65 491.29 1192 420C1201.98 351.29 1171.93 337.81 1193.89 280" stroke="rgba(243, 243, 243, 0.08)" stroke-width="2"></path><path d="M0 346.18C14.54 346.18 30.96 380.42 52.73 420C89.76 487.33 132.56 520.28 117.6 560C106.2 590.28 26.84 591.96 0 560C-31.96 521.96 0 490 0 420C0 383.09 -11.83 346.18 0 346.18" stroke="rgba(243, 243, 243, 0.08)" stroke-width="2"></path><path d="M177.33 560C177.33 542.64 235.47 495.83 280 495.83C308.49 495.83 323.38 539.43 323.38 560C323.38 571.52 301.69 560 280 560C228.67 560 177.33 574.72 177.33 560" stroke="rgba(243, 243, 243, 0.08)" stroke-width="2"></path><path d="M955.29 140C955.29 134.43 970.05 136.01 980 126C1039.68 66.01 1033.65 54.81 1094.55 0C1103.65 -8.19 1107.28 0 1120 0C1126.27 0 1131.26 -5.71 1132.54 0C1146.99 64.29 1156 73.49 1151.46 140C1149.73 165.37 1143.27 182.77 1120 183.75C1057.54 186.39 1049.91 165.81 980 147.24C967.56 143.94 955.29 145.05 955.29 140" stroke="rgba(243, 243, 243, 0.08)" stroke-width="2"></path><path d="M190.91 280C190.91 256.04 240.18 227.5 280 227.5C306.03 227.5 322.61 255.08 322.61 280C322.61 301.75 304.75 320.83 280 320.83C238.9 320.83 190.91 302.71 190.91 280" stroke="rgba(243, 243, 243, 0.08)" stroke-width="2"></path><path d="M669.85 280C676.14 254.5 685.37 235.45 700 235.45C714.25 235.45 710.16 260.63 727.61 280C780.16 338.32 781.31 338.52 840 390.83C859.84 408.52 884.68 402.72 884.68 420C884.68 441.17 869.38 459.21 840 467.73C777.04 485.98 761.78 489.43 700 473.53C669.03 465.56 659.52 452.2 654.5 420C644.44 355.44 653.39 346.77 669.85 280" stroke="rgba(243, 243, 243, 0.08)" stroke-width="2"></path><path d="M0 409.82C2 409.82 5.39 414.06 7.27 420C29.19 489.15 50.34 507.24 47.6 560C46.7 577.24 6.04 577.76 0 560C-17.76 507.76 0 490 0 420C0 414.91 -1.63 409.82 0 409.82" stroke="rgba(243, 243, 243, 0.08)" stroke-width="2"></path><path d="M389.85 420C389.85 405.5 403.14 388.39 420 388.39C442.12 388.39 467.8 405.97 467.8 420C467.8 432.91 442.78 442.27 420 442.27C403.81 442.27 389.85 432.44 389.85 420" stroke="rgba(243, 243, 243, 0.08)" stroke-width="2"></path><path d="M1242 420C1250.25 382.77 1250.3 345.88 1260 345.88C1269.8 345.88 1258.44 390.35 1281 420C1328.44 482.33 1341.39 474.03 1400 529.85C1414.89 544.03 1428 551.03 1428 560C1428 566.1 1414 560 1400 560C1330 560 1330 560 1260 560C1236.27 560 1214.78 577.44 1212.54 560C1205.78 507.44 1226.52 489.83 1242 420" stroke="rgba(243, 243, 243, 0.08)" stroke-width="2"></path></g><defs><mask id="SvgjsMask1010"><rect width="1440" height="560" fill="#ffffff"></rect></mask></defs></svg>