<svg xmlns="http://www.w3.org/2000/svg" version="1.1" xmlns:xlink="http://www.w3.org/1999/xlink" xmlns:svgjs="http://svgjs.com/svgjs" width="1440" height="560" preserveAspectRatio="none" viewBox="0 0 1440 560"><g mask="url(&quot;#SvgjsMask1004&quot;)" fill="none"><path d="M0 25.85C4.55 6.89 13.66 3.68 33.6 0C83.66 -9.24 86.8 0 140 0C210 0 210 0 280 0C350 0 350 0 420 0C490 0 490 0 560 0C630 0 630 0 700 0C770 0 770 0 840 0C910 0 910 0 980 0C1030.4 0 1031.13 -4.57 1080.8 0C1101.13 1.87 1101.54 12.89 1120 12.89C1129.31 12.89 1126.25 0.93 1136.33 0C1196.25 -5.52 1198.16 0 1260 0C1328.7 0 1397.41 -21.46 1397.41 0C1397.41 26.1 1324.74 43.23 1260 95.13C1237.42 113.23 1223.58 113.3 1222.77 140C1220.78 205.73 1236.67 211.19 1254.4 280C1255.29 283.45 1257.67 284.52 1260 284.52C1261.65 284.52 1260.55 281.79 1262.37 280C1330.55 212.97 1326.07 203.05 1400 146.89C1418.22 133.05 1445.89 157.97 1446.67 140C1449.07 84.52 1382.02 36.51 1406.36 0C1428.69 -33.49 1507.37 -34.19 1540 0C1574.19 35.81 1540 70 1540 140C1540 210 1540 210 1540 280C1540 350 1540 350 1540 420C1540 474.75 1553.43 481.29 1540 529.49C1533.92 551.29 1524.02 554.98 1500.98 560C1454.02 570.23 1450.49 560 1400 560C1356 560 1347.97 576.7 1312 560C1277.97 544.2 1283.84 495 1260 495C1238.27 495 1250.91 546.05 1220.86 560C1180.91 578.55 1170.43 560 1120 560C1050 560 1050 560 980 560C910 560 910 560 840 560C770 560 770 560 700 560C630 560 630 560 560 560C490 560 490 560 420 560C350 560 350 560 280 560C210 560 210 560 140 560C86.47 560 58.04 590.3 32.94 560C0.04 520.3 37.85 483.63 24 420C21.38 407.96 2.05 420.62 0 408.65C-9.95 350.62 0 344.33 0 280C0 210 0 210 0 140C0 82.93 -12.25 76.89 0 25.85" stroke="rgba(243, 243, 243, 0.06)" stroke-width="2"></path><path d="M420 128.95C415.65 128.95 414.44 133.84 414.32 140C412.98 209.37 446.77 224.4 417.08 280C379.61 350.17 349.43 336.94 280 391.53C260.4 406.94 239.02 405.51 239.02 420C239.02 434.75 255.92 446.59 280 450C346.41 459.4 350.63 453.34 420 445.63C485.63 438.34 486.38 435.62 550 420C556.38 418.43 558.3 417.56 560 411.25C577.12 347.56 587.63 343.99 587.63 280C587.63 249.2 582.88 243 560 221.67C507.81 173 498.87 180.65 437.5 140C428.87 134.29 427.24 128.95 420 128.95" stroke="rgba(243, 243, 243, 0.06)" stroke-width="2"></path><path d="M980 231.72C957.97 231.72 939.42 249.95 934.84 280C925.06 344.09 934.55 353.3 951.28 420C957.13 443.3 958.09 456.15 980 460C1042.45 470.98 1052.67 463.64 1120 449.65C1148.92 443.64 1172.5 439.3 1172.5 420C1172.5 394.48 1149.16 386.98 1120 360C1073.5 316.98 1067.87 322.79 1021.18 280C997.87 258.65 1001.14 231.72 980 231.72" stroke="rgba(243, 243, 243, 0.06)" stroke-width="2"></path><path d="M1400 394.37C1380.52 394.37 1357.67 406.11 1357.67 420C1357.67 434.89 1380.99 451.93 1400 451.93C1414.45 451.93 1424.59 435.3 1424.59 420C1424.59 406.52 1413.98 394.37 1400 394.37" stroke="rgba(243, 243, 243, 0.06)" stroke-width="2"></path><path d="M0 79.69C35.44 31.79 48.85 31.17 103.6 0C118.85 -8.68 121.8 0 140 0C210 0 210 0 280 0C350 0 350 0 420 0C490 0 490 0 560 0C630 0 630 0 700 0C770 0 770 0 840 0C898.87 0 957.73 -21.88 957.73 0C957.73 28.9 905.95 88.14 840 101.57C777.08 114.39 767.53 46.05 700 52.5C627.53 59.43 628.28 132.15 560 128.33C488.28 124.32 476.98 33.39 420 36.84C380.49 39.23 384.08 85.31 367.03 140C346.17 206.89 371.66 219.3 344.17 280C328.14 315.4 313.31 307.72 280 332.2C218.05 377.72 209.92 370.65 153.66 420C139.92 432.05 147.33 455 140 455C132.5 455 139.34 430.26 124 420C69.34 383.43 38.92 405.29 0 361.35C-23.08 335.29 0 320.67 0 280C0 210 0 210 0 140C0 109.84 -16.36 101.79 0 79.69" stroke="rgba(243, 243, 243, 0.06)" stroke-width="2"></path><path d="M996.8 140C996.8 91.54 1064.71 58.95 1120 58.95C1159.08 58.95 1185.53 95.63 1185.53 140C1185.53 204.6 1162.63 276.89 1120 276.89C1068.27 276.89 996.8 200.51 996.8 140" stroke="rgba(243, 243, 243, 0.06)" stroke-width="2"></path><path d="M1260 50.26C1226.7 50.26 1194.67 14.02 1194.67 0C1194.67 -11.11 1227.34 0 1260 0C1296.3 0 1332.59 -11.34 1332.59 0C1332.59 13.79 1295.66 50.26 1260 50.26" stroke="rgba(243, 243, 243, 0.06)" stroke-width="2"></path><path d="M633.68 280C633.68 236.01 660.3 197.38 700 197.38C756.46 197.38 764.04 237.39 826 280C834.04 285.53 835.15 285.22 840 293.66C875.36 355.22 869.26 359.27 906.41 420C939.26 473.69 930.04 505.93 980 522.5C1036.83 541.34 1058.52 479.48 1120 490.82C1160.14 498.23 1183.23 539.34 1183.23 560C1183.23 573.93 1151.61 560 1120 560C1050 560 1050 560 980 560C927.5 560 926.12 566.09 875 560C856.12 557.75 855.73 543.33 840 543.33C831.09 543.33 836.12 558.76 825.71 560C766.12 567.1 762.86 560 700 560C641.88 560 583.77 584.73 583.77 560C583.77 524.34 641.09 498.77 700 439.22C710.34 428.77 722.27 430.08 722.27 420C722.27 409.08 708.48 410.6 700 397.21C664.18 340.6 633.68 335.92 633.68 280" stroke="rgba(243, 243, 243, 0.06)" stroke-width="2"></path><path d="M1321.69 280C1321.69 243.61 1352.24 219.97 1400 204.26C1461.4 184.07 1493.72 183.17 1540 208.21C1563.72 221.04 1540 244.11 1540 280C1540 350 1540 350 1540 420C1540 452.31 1553.88 484.62 1540 484.62C1519.83 484.62 1505.13 453.13 1471.89 420C1435.13 383.36 1437.92 380.41 1400 345.07C1362.82 310.41 1321.69 314.01 1321.69 280" stroke="rgba(243, 243, 243, 0.06)" stroke-width="2"></path><path d="M1245.42 420C1245.42 409.77 1252.42 397.42 1260 397.42C1267.85 397.42 1276.28 409.9 1276.28 420C1276.28 427.44 1267.97 432.5 1260 432.5C1252.54 432.5 1245.42 427.31 1245.42 420" stroke="rgba(243, 243, 243, 0.06)" stroke-width="2"></path><path d="M194.19 560C194.19 547.33 233.7 525.84 280 512.5C346.61 493.31 354.41 482.47 420 494.93C479.41 506.22 530 542.51 530 560C530 575.05 475 560 420 560C350 560 350 560 280 560C237.1 560 194.19 571.08 194.19 560" stroke="rgba(243, 243, 243, 0.06)" stroke-width="2"></path><path d="M1362 560C1362 545.7 1380.2 513.33 1400 513.33C1421.01 513.33 1443.61 546.13 1443.61 560C1443.61 569.47 1421.8 560 1400 560C1381 560 1362 569.03 1362 560" stroke="rgba(243, 243, 243, 0.06)" stroke-width="2"></path><path d="M0 133.54C67.28 93.17 65.42 73.86 140 56C205.42 40.34 223.66 40.17 280 66.5C313.53 82.17 319.73 101.44 319.73 140C319.73 199.44 311.15 212.03 280 262.5C267.95 282.03 256.87 271.83 233.33 280C186.87 296.13 188.14 304.08 140 311.11C71.48 321.11 56.31 326.56 0 314.05C-13.69 311.01 0 297.02 0 280C0 210 0 210 0 140C0 136.77 -2.72 135.17 0 133.54" stroke="rgba(243, 243, 243, 0.06)" stroke-width="2"></path><path d="M560 55.42C519.87 55.42 481.76 15.26 481.76 0C481.76 -12.45 520.88 0 560 0C605.86 0 651.72 -12.78 651.72 0C651.72 14.93 604.85 55.42 560 55.42" stroke="rgba(243, 243, 243, 0.06)" stroke-width="2"></path><path d="M840 32.94C804.35 32.94 763.64 8.59 763.64 0C763.64 -7.88 801.82 0 840 0C859.09 0 878.18 -7.1 878.18 0C878.18 9.37 861.62 32.94 840 32.94" stroke="rgba(243, 243, 243, 0.06)" stroke-width="2"></path><path d="M1066.8 140C1066.8 119.08 1096.12 105 1120 105C1136.87 105 1148.3 120.84 1148.3 140C1148.3 167.9 1138.41 199.11 1120 199.11C1097.66 199.11 1066.8 166.13 1066.8 140" stroke="rgba(243, 243, 243, 0.06)" stroke-width="2"></path><path d="M1260 5.38C1256.43 5.38 1253 1.5 1253 0C1253 -1.19 1256.5 0 1260 0C1263.89 0 1267.78 -1.21 1267.78 0C1267.78 1.48 1263.82 5.38 1260 5.38" stroke="rgba(243, 243, 243, 0.06)" stroke-width="2"></path><path d="M679.74 280C679.74 266.56 687.87 254.75 700 254.75C717.25 254.75 738.5 265.75 738.5 280C738.5 296.28 716.48 315.81 700 315.81C687.1 315.81 679.74 297.09 679.74 280" stroke="rgba(243, 243, 243, 0.06)" stroke-width="2"></path><path d="M1381.02 280C1381.02 271.18 1387.88 261.64 1400 261.64C1440.44 261.64 1486.15 271.44 1486.15 280C1486.15 288.51 1441.01 295.77 1400 295.77C1388.45 295.77 1381.02 288.24 1381.02 280" stroke="rgba(243, 243, 243, 0.06)" stroke-width="2"></path><path d="M801.82 420C801.82 399.63 823.65 379.02 840 379.02C853.51 379.02 861.54 399.56 861.54 420C861.54 440.05 853.47 460 840 460C823.61 460 801.82 440.12 801.82 420" stroke="rgba(243, 243, 243, 0.06)" stroke-width="2"></path><path d="M1519.19 420C1519.19 375.09 1534.74 323.75 1540 323.75C1545.14 323.75 1540 371.88 1540 420C1540 429.87 1544.24 439.74 1540 439.74C1533.84 439.74 1519.19 433.08 1519.19 420" stroke="rgba(243, 243, 243, 0.06)" stroke-width="2"></path><path d="M340 560C340 556.02 381.35 544.23 420 544.23C434.69 544.23 446.67 555.76 446.67 560C446.67 563.65 433.34 560 420 560C380 560 340 563.9 340 560" stroke="rgba(243, 243, 243, 0.06)" stroke-width="2"></path><path d="M649.81 560C649.81 544.6 674.39 507.84 700 507.84C726.63 507.84 754.29 544.85 754.29 560C754.29 570.93 727.14 560 700 560C674.9 560 649.81 570.68 649.81 560" stroke="rgba(243, 243, 243, 0.06)" stroke-width="2"></path><path d="M1031.85 560C1031.85 552.83 1079.67 532 1120 532C1136.54 532 1145.59 551.64 1145.59 560C1145.59 565.64 1132.8 560 1120 560C1075.93 560 1031.85 566.83 1031.85 560" stroke="rgba(243, 243, 243, 0.06)" stroke-width="2"></path></g><defs><mask id="SvgjsMask1004"><rect width="1440" height="560" fill="#ffffff"></rect></mask></defs></svg>