<svg xmlns="http://www.w3.org/2000/svg" version="1.1" xmlns:xlink="http://www.w3.org/1999/xlink" xmlns:svgjs="http://svgjs.com/svgjs" width="1440" height="560" preserveAspectRatio="none" viewBox="0 0 1440 560"><g mask="url(&quot;#SvgjsMask1005&quot;)" fill="none"><path d="M81.45 0C120.24 22.87 99.95 76.57 140 82.56C199.22 91.42 216.5 16.43 280 29.7C353.91 45.15 406.45 77.2 414.81 140C423.11 202.35 311.75 227.92 313.33 280C314.35 313.47 374.42 282.14 420 311.11C484.56 352.14 491.55 356.9 533.62 420C561.55 461.9 539.1 474.83 560 521.11C570.71 544.83 596.84 548.48 596.84 560C596.84 567.92 578.42 560 560 560C490 560 490 560 420 560C350 560 350 560 280 560C220.85 560 197.63 588.24 161.69 560C127.63 533.24 151.08 450 140 450C128.91 450 151.58 533.1 117.35 560C81.58 588.1 26.76 591.92 0 560C-31.92 521.92 0 490 0 420C0 350 0 350 0 280C0 210 0 210 0 140C0 70 -25.75 44.25 0 0C14.98 -25.75 50.24 -18.41 81.45 0" stroke="rgba(243, 243, 243, 0.02)" stroke-width="2"></path><path d="M425 140C413.22 81.92 460.68 54.61 513.33 0C528.18 -15.39 536.66 0 560 0C630 0 630 0 700 0C770 0 770 0 840 0C876.2 0 890.66 -22.42 912.41 0C958.57 47.58 943.46 70.4 975.82 140C977.25 143.09 978 142.62 980 145.38C1028.7 212.62 1053.82 205.6 1077.22 280C1097.01 342.91 1051.44 361.22 1066.38 420C1072.83 445.38 1093.06 448.31 1120 448.31C1147.87 448.31 1160.68 445.11 1176 420C1212.02 360.95 1191.88 345.48 1222.67 280C1233.88 256.17 1242.01 261.31 1260 241.38C1305.22 191.31 1349.09 188.29 1349.09 140C1349.09 96.76 1311.85 67.33 1260 58.33C1197.3 47.45 1182.18 114.6 1120 100.25C1055.79 85.43 1007.22 28.69 1007.22 0C1007.22 -21.44 1063.61 0 1120 0C1190 0 1190 0 1260 0C1330 0 1330 0 1400 0C1456 0 1466.38 -17.24 1512 0C1536.38 9.21 1534.3 24.38 1540 52.89C1548.3 94.38 1540 96.44 1540 140C1540 210 1540 210 1540 280C1540 350 1540 350 1540 420C1540 485.88 1542.91 486.86 1540 551.76C1539.77 556.86 1538.76 559.7 1533.73 560C1468.76 563.82 1466.86 560 1400 560C1330 560 1330 560 1260 560C1190 560 1190 560 1120 560C1050 560 1050 560 980 560C910 560 910 560 840 560C785.32 560 771.84 580.6 730.63 560C701.84 545.6 722.25 520.18 700 490C670.64 450.18 632.13 462.48 627.41 420C620.46 357.48 694.84 331.21 676.67 280C661.13 236.21 615.23 260.73 560 230C489.4 190.73 436.55 196.92 425 140" stroke="rgba(243, 243, 243, 0.02)" stroke-width="2"></path><path d="M700 123.1C687.14 123.1 671.18 125.84 671.18 140C671.18 183.29 689.22 238 700 238C710.44 238 713.61 187.12 713.61 140C713.61 129.67 708.35 123.1 700 123.1" stroke="rgba(243, 243, 243, 0.02)" stroke-width="2"></path><path d="M280 311.82C235.48 311.82 161 380.59 161 420C161 450.13 224.48 450.91 280 450.91C300.28 450.91 312.6 439.79 312.6 420C312.6 370.24 311.28 311.82 280 311.82" stroke="rgba(243, 243, 243, 0.02)" stroke-width="2"></path><path d="M17.82 0C17.82 13.2 4.68 37.69 0 37.69C-4.23 37.69 -6.05 12.8 0 0C2.86 -6.05 17.82 -5.64 17.82 0" stroke="rgba(243, 243, 243, 0.02)" stroke-width="2"></path><path d="M266 140C266 137.35 273.42 135.76 280 135.76C283.01 135.76 285.19 137.59 285.19 140C285.19 143.04 283.38 146.67 280 146.67C273.79 146.67 266 142.81 266 140" stroke="rgba(243, 243, 243, 0.02)" stroke-width="2"></path><path d="M550 140C550 133.61 555.32 125.26 560 125.26C564.44 125.26 568.24 133.42 568.24 140C568.24 144.13 564.27 146.67 560 146.67C555.15 146.67 550 144.31 550 140" stroke="rgba(243, 243, 243, 0.02)" stroke-width="2"></path><path d="M700 62.76C662.17 26.7 615.35 17.4 615.35 0C615.35 -13.98 657.67 0 700 0C750.56 0 753.62 -9.5 801.11 0C823.62 4.5 824.36 10.13 840 28C885.6 80.13 881.37 84.32 923.58 140C951.37 176.66 952.39 175.89 980 212.69C1004.91 245.89 1026.44 242.21 1028.61 280C1032.39 345.87 1011.84 350.52 991.91 420C987.53 435.26 988.95 449.47 980 449.47C968.26 449.47 965.27 434.74 950.53 420C895.27 364.74 893.53 366.22 840 309.47C827.5 296.22 826.04 296.51 818.46 280C787.15 211.77 797.96 205.54 762.22 140C738.73 96.92 735.61 96.7 700 62.76" stroke="rgba(243, 243, 243, 0.02)" stroke-width="2"></path><path d="M1120 57.04C1084.5 57.04 1055.83 16.32 1055.83 0C1055.83 -12.2 1087.91 0 1120 0C1173.72 0 1227.44 -13.38 1227.44 0C1227.44 15.14 1170.3 57.04 1120 57.04" stroke="rgba(243, 243, 243, 0.02)" stroke-width="2"></path><path d="M1400 107.5C1349.43 107.5 1286.42 31.14 1286.42 0C1286.42 -22.61 1343.21 0 1400 0C1435.41 0 1470.82 -19.08 1470.82 0C1470.82 34.67 1441.63 107.5 1400 107.5" stroke="rgba(243, 243, 243, 0.02)" stroke-width="2"></path><path d="M1513.75 140C1526.55 134.52 1530.17 130.67 1540 130.67C1543.29 130.67 1540 135.33 1540 140C1540 210 1540 210 1540 280C1540 350 1540 350 1540 420C1540 451.57 1551.56 455.47 1540 483.14C1522.31 525.47 1519.46 539.16 1481.49 560C1449.46 577.59 1440.74 560 1400 560C1330 560 1330 560 1260 560C1190 560 1190 560 1120 560C1067.22 560 1014.43 576.35 1014.43 560C1014.43 540.17 1064.88 519.88 1120 487.64C1184.56 449.88 1190.53 457.22 1253.78 420C1260.53 416.03 1256.6 412.5 1260 405.26C1289.46 342.5 1282.02 337.48 1319.5 280C1352.02 230.13 1352.26 224.97 1400 190.56C1449.39 154.97 1456.55 164.47 1513.75 140" stroke="rgba(243, 243, 243, 0.02)" stroke-width="2"></path><path d="M0 260.91C62.05 229.89 80.94 203.85 140 210C172.66 213.4 183.45 247.88 183.45 280C183.45 303.2 155.38 295.84 140 320.65C111.97 365.84 112.58 368.46 96.62 420C75.52 488.14 98.98 512.04 65.88 560C50.67 582.04 10.54 582.4 0 560C-22.4 512.4 0 490 0 420C0 350 0 350 0 280C0 270.46 -7.95 264.89 0 260.91" stroke="rgba(243, 243, 243, 0.02)" stroke-width="2"></path><path d="M360.55 420C390.84 390.44 389.85 359.72 420 359.72C451.03 359.72 482.9 384.69 482.9 420C482.9 475.11 453.71 481.85 420 540.56C413.51 551.85 414.82 558.29 402.5 560C344.82 568.01 341.25 560 280 560C245.5 560 210.99 573.48 210.99 560C210.99 541.66 245.73 528.44 280 496.36C320.51 458.44 320.84 458.76 360.55 420" stroke="rgba(243, 243, 243, 0.02)" stroke-width="2"></path><path d="M785.31 560C785.31 531.41 807.67 472.5 840 472.5C878.77 472.5 927.5 534.37 927.5 560C927.5 578.12 883.75 560 840 560C812.65 560 785.31 575.16 785.31 560" stroke="rgba(243, 243, 243, 0.02)" stroke-width="2"></path><path d="M700 2.41C698.32 2.41 696.74 0.67 696.74 0C696.74 -0.54 698.37 0 700 0C701.94 0 703.89 -0.55 703.89 0C703.89 0.65 701.9 2.41 700 2.41" stroke="rgba(243, 243, 243, 0.02)" stroke-width="2"></path><path d="M810.83 140C810.83 117.95 825.06 98 840 98C855.31 98 871.34 117.84 871.34 140C871.34 168 855.24 198.33 840 198.33C824.99 198.33 810.83 168.12 810.83 140" stroke="rgba(243, 243, 243, 0.02)" stroke-width="2"></path><path d="M1120 13.83C1111.39 13.83 1104.44 3.96 1104.44 0C1104.44 -2.96 1112.22 0 1120 0C1133.03 0 1146.05 -3.24 1146.05 0C1146.05 3.67 1132.2 13.83 1120 13.83" stroke="rgba(243, 243, 243, 0.02)" stroke-width="2"></path><path d="M1400 45C1378.83 45 1352.45 13.03 1352.45 0C1352.45 -9.47 1376.22 0 1400 0C1414.82 0 1429.65 -7.99 1429.65 0C1429.65 14.51 1417.43 45 1400 45" stroke="rgba(243, 243, 243, 0.02)" stroke-width="2"></path><path d="M1470 280C1503.66 269.71 1509.94 268.33 1540 268.33C1544.94 268.33 1540 274.16 1540 280C1540 315 1547.43 316.58 1540 350C1531.87 386.58 1526.74 386.16 1508.89 420C1471.36 491.16 1475.33 500.76 1429.25 560C1420.88 570.76 1414.63 560 1400 560C1330 560 1330 560 1260 560C1190 560 1190 560 1120 560C1095.9 560 1071.8 567.47 1071.8 560C1071.8 550.95 1092.79 536.39 1120 526.97C1186.89 503.83 1195.29 522.87 1260 494.88C1318.96 469.38 1329.87 469.17 1367.33 420C1399.87 377.29 1369.33 352.93 1400 311.11C1420.67 282.93 1433.66 291.1 1470 280" stroke="rgba(243, 243, 243, 0.02)" stroke-width="2"></path><path d="M0 346.96C12.86 346.96 44.6 379.84 47.32 420C51.81 486.36 35.92 496.38 14.41 560C12.26 566.38 0.67 566.53 0 560C-6.53 496.53 0 490 0 420C0 383.48 -10.8 346.96 0 346.96" stroke="rgba(243, 243, 243, 0.02)" stroke-width="2"></path><path d="M408.49 420C408.49 413.24 414.16 408.33 420 408.33C426 408.33 432.17 413.17 432.17 420C432.17 430.67 425.95 443.33 420 443.33C414.11 443.33 408.49 430.74 408.49 420" stroke="rgba(243, 243, 243, 0.02)" stroke-width="2"></path><path d="M260.28 560C260.28 554.76 268.93 541.82 280 541.82C296.29 541.82 315 555.18 315 560C315 564.27 297.5 560 280 560C270.14 560 260.28 563.85 260.28 560" stroke="rgba(243, 243, 243, 0.02)" stroke-width="2"></path></g><defs><mask id="SvgjsMask1005"><rect width="1440" height="560" fill="#ffffff"></rect></mask></defs></svg>