<svg xmlns="http://www.w3.org/2000/svg" version="1.1" xmlns:xlink="http://www.w3.org/1999/xlink" xmlns:svgjs="http://svgjs.com/svgjs" width="500" height="800" preserveAspectRatio="none" viewBox="0 0 500 800"><g mask="url(&quot;#SvgjsMask1081&quot;)" fill="none"><rect width="500" height="800" x="0" y="0" fill="url(#SvgjsLinearGradient1082)"></rect><path d="M-54.86 553.29L-54.86 553.29" stroke="rgba(237, 100, 166, 0.39)" stroke-width="1.5"></path><path d="M-54.86 553.29L-27.17 659.96" stroke="rgba(237, 100, 166, 0.39)" stroke-width="1.5"></path><path d="M-54.86 553.29L42.56 654.08" stroke="rgba(237, 100, 166, 0.39)" stroke-width="1.5"></path><path d="M-54.86 553.29L-51.19 742.12" stroke="rgba(237, 100, 166, 0.39)" stroke-width="1.5"></path><path d="M-54.86 553.29L139.72 547.43" stroke="rgba(237, 100, 166, 0.39)" stroke-width="1.5"></path><path d="M-54.86 553.29L144.33 428.78" stroke="rgba(237, 100, 166, 0.39)" stroke-width="1.5"></path><path d="M-54.86 553.29L68.21 768.64" stroke="rgba(237, 100, 166, 0.39)" stroke-width="1.5"></path><path d="M-27.17 659.96L-27.17 659.96" stroke="rgba(237, 100, 166, 0.39)" stroke-width="1.5"></path><path d="M-27.17 659.96L42.56 654.08" stroke="rgba(237, 100, 166, 0.39)" stroke-width="1.5"></path><path d="M-27.17 659.96L-51.19 742.12" stroke="rgba(237, 100, 166, 0.39)" stroke-width="1.5"></path><path d="M-27.17 659.96L68.21 768.64" stroke="rgba(237, 100, 166, 0.39)" stroke-width="1.5"></path><path d="M-27.17 659.96L-53.72 841.93" stroke="rgba(237, 100, 166, 0.39)" stroke-width="1.5"></path><path d="M-27.17 659.96L169.13 661.61" stroke="rgba(237, 100, 166, 0.39)" stroke-width="1.5"></path><path d="M-51.19 742.12L-51.19 742.12" stroke="rgba(237, 100, 166, 0.39)" stroke-width="1.5"></path><path d="M-51.19 742.12L-53.72 841.93" stroke="rgba(237, 100, 166, 0.39)" stroke-width="1.5"></path><path d="M-51.19 742.12L68.21 768.64" stroke="rgba(237, 100, 166, 0.39)" stroke-width="1.5"></path><path d="M-51.19 742.12L42.56 654.08" stroke="rgba(237, 100, 166, 0.39)" stroke-width="1.5"></path><path d="M-53.72 841.93L-53.72 841.93" stroke="rgba(237, 100, 166, 0.39)" stroke-width="1.5"></path><path d="M-53.72 841.93L58.05 861.98" stroke="rgba(237, 100, 166, 0.39)" stroke-width="1.5"></path><path d="M42.56 654.08L42.56 654.08" stroke="rgba(237, 100, 166, 0.39)" stroke-width="1.5"></path><path d="M42.56 654.08L68.21 768.64" stroke="rgba(237, 100, 166, 0.39)" stroke-width="1.5"></path><path d="M68.21 768.64L68.21 768.64" stroke="rgba(237, 100, 166, 0.39)" stroke-width="1.5"></path><path d="M68.21 768.64L58.05 861.98" stroke="rgba(237, 100, 166, 0.39)" stroke-width="1.5"></path><path d="M68.21 768.64L158.02 859.9" stroke="rgba(237, 100, 166, 0.39)" stroke-width="1.5"></path><path d="M68.21 768.64L-53.72 841.93" stroke="rgba(237, 100, 166, 0.39)" stroke-width="1.5"></path><path d="M58.05 861.98L58.05 861.98" stroke="rgba(237, 100, 166, 0.39)" stroke-width="1.5"></path><path d="M58.05 861.98L158.02 859.9" stroke="rgba(237, 100, 166, 0.39)" stroke-width="1.5"></path><path d="M58.05 861.98L-51.19 742.12" stroke="rgba(237, 100, 166, 0.39)" stroke-width="1.5"></path><path d="M58.05 861.98L228.32 843.75" stroke="rgba(237, 100, 166, 0.39)" stroke-width="1.5"></path><path d="M144.33 428.78L144.33 428.78" stroke="rgba(237, 100, 166, 0.39)" stroke-width="1.5"></path><path d="M144.33 428.78L247.46 454.39" stroke="rgba(237, 100, 166, 0.39)" stroke-width="1.5"></path><path d="M144.33 428.78L139.72 547.43" stroke="rgba(237, 100, 166, 0.39)" stroke-width="1.5"></path><path d="M144.33 428.78L229.08 530.43" stroke="rgba(237, 100, 166, 0.39)" stroke-width="1.5"></path><path d="M139.72 547.43L139.72 547.43" stroke="rgba(237, 100, 166, 0.39)" stroke-width="1.5"></path><path d="M139.72 547.43L229.08 530.43" stroke="rgba(237, 100, 166, 0.39)" stroke-width="1.5"></path><path d="M139.72 547.43L169.13 661.61" stroke="rgba(237, 100, 166, 0.39)" stroke-width="1.5"></path><path d="M169.13 661.61L169.13 661.61" stroke="rgba(237, 100, 166, 0.39)" stroke-width="1.5"></path><path d="M169.13 661.61L271.74 661.12" stroke="rgba(237, 100, 166, 0.39)" stroke-width="1.5"></path><path d="M169.13 661.61L245.21 760.85" stroke="rgba(237, 100, 166, 0.39)" stroke-width="1.5"></path><path d="M158.02 859.9L158.02 859.9" stroke="rgba(237, 100, 166, 0.39)" stroke-width="1.5"></path><path d="M158.02 859.9L228.32 843.75" stroke="rgba(237, 100, 166, 0.39)" stroke-width="1.5"></path><path d="M268.31 351.71L268.31 351.71" stroke="rgba(237, 100, 166, 0.39)" stroke-width="1.5"></path><path d="M268.31 351.71L247.46 454.39" stroke="rgba(237, 100, 166, 0.39)" stroke-width="1.5"></path><path d="M268.31 351.71L352.05 269.33" stroke="rgba(237, 100, 166, 0.39)" stroke-width="1.5"></path><path d="M247.46 454.39L247.46 454.39" stroke="rgba(237, 100, 166, 0.39)" stroke-width="1.5"></path><path d="M247.46 454.39L229.08 530.43" stroke="rgba(237, 100, 166, 0.39)" stroke-width="1.5"></path><path d="M247.46 454.39L339.62 472.32" stroke="rgba(237, 100, 166, 0.39)" stroke-width="1.5"></path><path d="M247.46 454.39L330.4 537.01" stroke="rgba(237, 100, 166, 0.39)" stroke-width="1.5"></path><path d="M229.08 530.43L229.08 530.43" stroke="rgba(237, 100, 166, 0.39)" stroke-width="1.5"></path><path d="M229.08 530.43L330.4 537.01" stroke="rgba(237, 100, 166, 0.39)" stroke-width="1.5"></path><path d="M229.08 530.43L339.62 472.32" stroke="rgba(237, 100, 166, 0.39)" stroke-width="1.5"></path><path d="M271.74 661.12L271.74 661.12" stroke="rgba(237, 100, 166, 0.39)" stroke-width="1.5"></path><path d="M271.74 661.12L372.13 674.52" stroke="rgba(237, 100, 166, 0.39)" stroke-width="1.5"></path><path d="M245.21 760.85L245.21 760.85" stroke="rgba(237, 100, 166, 0.39)" stroke-width="1.5"></path><path d="M245.21 760.85L228.32 843.75" stroke="rgba(237, 100, 166, 0.39)" stroke-width="1.5"></path><path d="M245.21 760.85L271.74 661.12" stroke="rgba(237, 100, 166, 0.39)" stroke-width="1.5"></path><path d="M245.21 760.85L358.72 750.71" stroke="rgba(237, 100, 166, 0.39)" stroke-width="1.5"></path><path d="M228.32 843.75L228.32 843.75" stroke="rgba(237, 100, 166, 0.39)" stroke-width="1.5"></path><path d="M361.49 -32.19L361.49 -32.19" stroke="rgba(237, 100, 166, 0.39)" stroke-width="1.5"></path><path d="M361.49 -32.19L334.93 37.34" stroke="rgba(237, 100, 166, 0.39)" stroke-width="1.5"></path><path d="M361.49 -32.19L465.19 -62.47" stroke="rgba(237, 100, 166, 0.39)" stroke-width="1.5"></path><path d="M361.49 -32.19L428.02 65.73" stroke="rgba(237, 100, 166, 0.39)" stroke-width="1.5"></path><path d="M361.49 -32.19L372.74 139.14" stroke="rgba(237, 100, 166, 0.39)" stroke-width="1.5"></path><path d="M361.49 -32.19L554.47 27.34" stroke="rgba(237, 100, 166, 0.39)" stroke-width="1.5"></path><path d="M334.93 37.34L334.93 37.34" stroke="rgba(237, 100, 166, 0.39)" stroke-width="1.5"></path><path d="M334.93 37.34L428.02 65.73" stroke="rgba(237, 100, 166, 0.39)" stroke-width="1.5"></path><path d="M334.93 37.34L372.74 139.14" stroke="rgba(237, 100, 166, 0.39)" stroke-width="1.5"></path><path d="M372.74 139.14L372.74 139.14" stroke="rgba(237, 100, 166, 0.39)" stroke-width="1.5"></path><path d="M372.74 139.14L462.22 146.52" stroke="rgba(237, 100, 166, 0.39)" stroke-width="1.5"></path><path d="M372.74 139.14L428.02 65.73" stroke="rgba(237, 100, 166, 0.39)" stroke-width="1.5"></path><path d="M372.74 139.14L435.72 240.73" stroke="rgba(237, 100, 166, 0.39)" stroke-width="1.5"></path><path d="M372.74 139.14L352.05 269.33" stroke="rgba(237, 100, 166, 0.39)" stroke-width="1.5"></path><path d="M352.05 269.33L352.05 269.33" stroke="rgba(237, 100, 166, 0.39)" stroke-width="1.5"></path><path d="M352.05 269.33L435.72 240.73" stroke="rgba(237, 100, 166, 0.39)" stroke-width="1.5"></path><path d="M352.05 269.33L441.12 362.76" stroke="rgba(237, 100, 166, 0.39)" stroke-width="1.5"></path><path d="M352.05 269.33L462.22 146.52" stroke="rgba(237, 100, 166, 0.39)" stroke-width="1.5"></path><path d="M352.05 269.33L463.2 428.3" stroke="rgba(237, 100, 166, 0.39)" stroke-width="1.5"></path><path d="M339.62 472.32L339.62 472.32" stroke="rgba(237, 100, 166, 0.39)" stroke-width="1.5"></path><path d="M339.62 472.32L330.4 537.01" stroke="rgba(237, 100, 166, 0.39)" stroke-width="1.5"></path><path d="M339.62 472.32L463.2 428.3" stroke="rgba(237, 100, 166, 0.39)" stroke-width="1.5"></path><path d="M339.62 472.32L268.31 351.71" stroke="rgba(237, 100, 166, 0.39)" stroke-width="1.5"></path><path d="M339.62 472.32L441.12 362.76" stroke="rgba(237, 100, 166, 0.39)" stroke-width="1.5"></path><path d="M330.4 537.01L330.4 537.01" stroke="rgba(237, 100, 166, 0.39)" stroke-width="1.5"></path><path d="M330.4 537.01L271.74 661.12" stroke="rgba(237, 100, 166, 0.39)" stroke-width="1.5"></path><path d="M372.13 674.52L372.13 674.52" stroke="rgba(237, 100, 166, 0.39)" stroke-width="1.5"></path><path d="M372.13 674.52L444.06 672.88" stroke="rgba(237, 100, 166, 0.39)" stroke-width="1.5"></path><path d="M358.72 750.71L358.72 750.71" stroke="rgba(237, 100, 166, 0.39)" stroke-width="1.5"></path><path d="M358.72 750.71L372.13 674.52" stroke="rgba(237, 100, 166, 0.39)" stroke-width="1.5"></path><path d="M358.72 750.71L454.46 775" stroke="rgba(237, 100, 166, 0.39)" stroke-width="1.5"></path><path d="M358.72 750.71L444.06 672.88" stroke="rgba(237, 100, 166, 0.39)" stroke-width="1.5"></path><path d="M358.72 750.71L340.86 869.32" stroke="rgba(237, 100, 166, 0.39)" stroke-width="1.5"></path><path d="M340.86 869.32L340.86 869.32" stroke="rgba(237, 100, 166, 0.39)" stroke-width="1.5"></path><path d="M340.86 869.32L228.32 843.75" stroke="rgba(237, 100, 166, 0.39)" stroke-width="1.5"></path><path d="M340.86 869.32L470.86 859.51" stroke="rgba(237, 100, 166, 0.39)" stroke-width="1.5"></path><path d="M340.86 869.32L245.21 760.85" stroke="rgba(237, 100, 166, 0.39)" stroke-width="1.5"></path><path d="M340.86 869.32L454.46 775" stroke="rgba(237, 100, 166, 0.39)" stroke-width="1.5"></path><path d="M465.19 -62.47L465.19 -62.47" stroke="rgba(237, 100, 166, 0.39)" stroke-width="1.5"></path><path d="M465.19 -62.47L566.13 -51.11" stroke="rgba(237, 100, 166, 0.39)" stroke-width="1.5"></path><path d="M465.19 -62.47L554.47 27.34" stroke="rgba(237, 100, 166, 0.39)" stroke-width="1.5"></path><path d="M465.19 -62.47L428.02 65.73" stroke="rgba(237, 100, 166, 0.39)" stroke-width="1.5"></path><path d="M465.19 -62.47L334.93 37.34" stroke="rgba(237, 100, 166, 0.39)" stroke-width="1.5"></path><path d="M428.02 65.73L428.02 65.73" stroke="rgba(237, 100, 166, 0.39)" stroke-width="1.5"></path><path d="M428.02 65.73L462.22 146.52" stroke="rgba(237, 100, 166, 0.39)" stroke-width="1.5"></path><path d="M428.02 65.73L554.47 27.34" stroke="rgba(237, 100, 166, 0.39)" stroke-width="1.5"></path><path d="M462.22 146.52L462.22 146.52" stroke="rgba(237, 100, 166, 0.39)" stroke-width="1.5"></path><path d="M462.22 146.52L435.72 240.73" stroke="rgba(237, 100, 166, 0.39)" stroke-width="1.5"></path><path d="M462.22 146.52L554.47 27.34" stroke="rgba(237, 100, 166, 0.39)" stroke-width="1.5"></path><path d="M462.22 146.52L563.11 261.24" stroke="rgba(237, 100, 166, 0.39)" stroke-width="1.5"></path><path d="M435.72 240.73L435.72 240.73" stroke="rgba(237, 100, 166, 0.39)" stroke-width="1.5"></path><path d="M435.72 240.73L441.12 362.76" stroke="rgba(237, 100, 166, 0.39)" stroke-width="1.5"></path><path d="M441.12 362.76L441.12 362.76" stroke="rgba(237, 100, 166, 0.39)" stroke-width="1.5"></path><path d="M441.12 362.76L463.2 428.3" stroke="rgba(237, 100, 166, 0.39)" stroke-width="1.5"></path><path d="M441.12 362.76L552.15 459.15" stroke="rgba(237, 100, 166, 0.39)" stroke-width="1.5"></path><path d="M441.12 362.76L563.11 261.24" stroke="rgba(237, 100, 166, 0.39)" stroke-width="1.5"></path><path d="M463.2 428.3L463.2 428.3" stroke="rgba(237, 100, 166, 0.39)" stroke-width="1.5"></path><path d="M463.2 428.3L552.15 459.15" stroke="rgba(237, 100, 166, 0.39)" stroke-width="1.5"></path><path d="M463.2 428.3L473.31 559.8" stroke="rgba(237, 100, 166, 0.39)" stroke-width="1.5"></path><path d="M473.31 559.8L473.31 559.8" stroke="rgba(237, 100, 166, 0.39)" stroke-width="1.5"></path><path d="M473.31 559.8L525.67 569.72" stroke="rgba(237, 100, 166, 0.39)" stroke-width="1.5"></path><path d="M473.31 559.8L539.82 639.41" stroke="rgba(237, 100, 166, 0.39)" stroke-width="1.5"></path><path d="M444.06 672.88L444.06 672.88" stroke="rgba(237, 100, 166, 0.39)" stroke-width="1.5"></path><path d="M444.06 672.88L539.82 639.41" stroke="rgba(237, 100, 166, 0.39)" stroke-width="1.5"></path><path d="M454.46 775L454.46 775" stroke="rgba(237, 100, 166, 0.39)" stroke-width="1.5"></path><path d="M454.46 775L470.86 859.51" stroke="rgba(237, 100, 166, 0.39)" stroke-width="1.5"></path><path d="M454.46 775L444.06 672.88" stroke="rgba(237, 100, 166, 0.39)" stroke-width="1.5"></path><path d="M454.46 775L560.41 736.13" stroke="rgba(237, 100, 166, 0.39)" stroke-width="1.5"></path><path d="M454.46 775L533.3 869.07" stroke="rgba(237, 100, 166, 0.39)" stroke-width="1.5"></path><path d="M454.46 775L372.13 674.52" stroke="rgba(237, 100, 166, 0.39)" stroke-width="1.5"></path><path d="M470.86 859.51L470.86 859.51" stroke="rgba(237, 100, 166, 0.39)" stroke-width="1.5"></path><path d="M470.86 859.51L533.3 869.07" stroke="rgba(237, 100, 166, 0.39)" stroke-width="1.5"></path><path d="M566.13 -51.11L566.13 -51.11" stroke="rgba(237, 100, 166, 0.39)" stroke-width="1.5"></path><path d="M566.13 -51.11L554.47 27.34" stroke="rgba(237, 100, 166, 0.39)" stroke-width="1.5"></path><path d="M566.13 -51.11L428.02 65.73" stroke="rgba(237, 100, 166, 0.39)" stroke-width="1.5"></path><path d="M566.13 -51.11L361.49 -32.19" stroke="rgba(237, 100, 166, 0.39)" stroke-width="1.5"></path><path d="M554.47 27.34L554.47 27.34" stroke="rgba(237, 100, 166, 0.39)" stroke-width="1.5"></path><path d="M554.47 27.34L372.74 139.14" stroke="rgba(237, 100, 166, 0.39)" stroke-width="1.5"></path><path d="M563.11 261.24L563.11 261.24" stroke="rgba(237, 100, 166, 0.39)" stroke-width="1.5"></path><path d="M563.11 261.24L435.72 240.73" stroke="rgba(237, 100, 166, 0.39)" stroke-width="1.5"></path><path d="M563.11 261.24L463.2 428.3" stroke="rgba(237, 100, 166, 0.39)" stroke-width="1.5"></path><path d="M563.11 261.24L552.15 459.15" stroke="rgba(237, 100, 166, 0.39)" stroke-width="1.5"></path><path d="M552.15 459.15L552.15 459.15" stroke="rgba(237, 100, 166, 0.39)" stroke-width="1.5"></path><path d="M552.15 459.15L525.67 569.72" stroke="rgba(237, 100, 166, 0.39)" stroke-width="1.5"></path><path d="M552.15 459.15L473.31 559.8" stroke="rgba(237, 100, 166, 0.39)" stroke-width="1.5"></path><path d="M525.67 569.72L525.67 569.72" stroke="rgba(237, 100, 166, 0.39)" stroke-width="1.5"></path><path d="M525.67 569.72L539.82 639.41" stroke="rgba(237, 100, 166, 0.39)" stroke-width="1.5"></path><path d="M539.82 639.41L539.82 639.41" stroke="rgba(237, 100, 166, 0.39)" stroke-width="1.5"></path><path d="M539.82 639.41L560.41 736.13" stroke="rgba(237, 100, 166, 0.39)" stroke-width="1.5"></path><path d="M539.82 639.41L454.46 775" stroke="rgba(237, 100, 166, 0.39)" stroke-width="1.5"></path><path d="M560.41 736.13L560.41 736.13" stroke="rgba(237, 100, 166, 0.39)" stroke-width="1.5"></path><path d="M533.3 869.07L533.3 869.07" stroke="rgba(237, 100, 166, 0.39)" stroke-width="1.5"></path><circle r="5" cx="-54.86" cy="553.29" fill="rgba(237, 100, 166, 0.39)"></circle><circle r="5" cx="-27.17" cy="659.96" fill="rgba(237, 100, 166, 0.39)"></circle><circle r="5" cx="-51.19" cy="742.12" fill="rgba(237, 100, 166, 0.39)"></circle><circle r="5" cx="-53.72" cy="841.93" fill="rgba(237, 100, 166, 0.39)"></circle><circle r="5" cx="42.56" cy="654.08" fill="rgba(237, 100, 166, 0.39)"></circle><circle r="5" cx="68.21" cy="768.64" fill="rgba(237, 100, 166, 0.39)"></circle><circle r="5" cx="58.05" cy="861.98" fill="rgba(237, 100, 166, 0.39)"></circle><circle r="5" cx="144.33" cy="428.78" fill="rgba(237, 100, 166, 0.39)"></circle><circle r="5" cx="139.72" cy="547.43" fill="rgba(237, 100, 166, 0.39)"></circle><circle r="5" cx="169.13" cy="661.61" fill="rgba(237, 100, 166, 0.39)"></circle><circle r="5" cx="158.02" cy="859.9" fill="rgba(237, 100, 166, 0.39)"></circle><circle r="5" cx="268.31" cy="351.71" fill="rgba(237, 100, 166, 0.39)"></circle><circle r="5" cx="247.46" cy="454.39" fill="rgba(237, 100, 166, 0.39)"></circle><circle r="5" cx="229.08" cy="530.43" fill="rgba(237, 100, 166, 0.39)"></circle><circle r="5" cx="271.74" cy="661.12" fill="rgba(237, 100, 166, 0.39)"></circle><circle r="5" cx="245.21" cy="760.85" fill="rgba(237, 100, 166, 0.39)"></circle><circle r="5" cx="228.32" cy="843.75" fill="rgba(237, 100, 166, 0.39)"></circle><circle r="5" cx="361.49" cy="-32.19" fill="rgba(237, 100, 166, 0.39)"></circle><circle r="5" cx="334.93" cy="37.34" fill="rgba(237, 100, 166, 0.39)"></circle><circle r="5" cx="372.74" cy="139.14" fill="rgba(237, 100, 166, 0.39)"></circle><circle r="5" cx="352.05" cy="269.33" fill="rgba(237, 100, 166, 0.39)"></circle><circle r="5" cx="339.62" cy="472.32" fill="rgba(237, 100, 166, 0.39)"></circle><circle r="5" cx="330.4" cy="537.01" fill="rgba(237, 100, 166, 0.39)"></circle><circle r="5" cx="372.13" cy="674.52" fill="rgba(237, 100, 166, 0.39)"></circle><circle r="5" cx="358.72" cy="750.71" fill="rgba(237, 100, 166, 0.39)"></circle><circle r="5" cx="340.86" cy="869.32" fill="rgba(237, 100, 166, 0.39)"></circle><circle r="5" cx="465.19" cy="-62.47" fill="rgba(237, 100, 166, 0.39)"></circle><circle r="5" cx="428.02" cy="65.73" fill="rgba(237, 100, 166, 0.39)"></circle><circle r="5" cx="462.22" cy="146.52" fill="rgba(237, 100, 166, 0.39)"></circle><circle r="5" cx="435.72" cy="240.73" fill="rgba(237, 100, 166, 0.39)"></circle><circle r="5" cx="441.12" cy="362.76" fill="rgba(237, 100, 166, 0.39)"></circle><circle r="5" cx="463.2" cy="428.3" fill="rgba(237, 100, 166, 0.39)"></circle><circle r="5" cx="473.31" cy="559.8" fill="rgba(237, 100, 166, 0.39)"></circle><circle r="5" cx="444.06" cy="672.88" fill="rgba(237, 100, 166, 0.39)"></circle><circle r="5" cx="454.46" cy="775" fill="rgba(237, 100, 166, 0.39)"></circle><circle r="5" cx="470.86" cy="859.51" fill="rgba(237, 100, 166, 0.39)"></circle><circle r="5" cx="566.13" cy="-51.11" fill="rgba(237, 100, 166, 0.39)"></circle><circle r="5" cx="554.47" cy="27.34" fill="rgba(237, 100, 166, 0.39)"></circle><circle r="5" cx="563.11" cy="261.24" fill="rgba(237, 100, 166, 0.39)"></circle><circle r="5" cx="552.15" cy="459.15" fill="rgba(237, 100, 166, 0.39)"></circle><circle r="5" cx="525.67" cy="569.72" fill="rgba(237, 100, 166, 0.39)"></circle><circle r="5" cx="539.82" cy="639.41" fill="rgba(237, 100, 166, 0.39)"></circle><circle r="5" cx="560.41" cy="736.13" fill="rgba(237, 100, 166, 0.39)"></circle><circle r="5" cx="533.3" cy="869.07" fill="rgba(237, 100, 166, 0.39)"></circle><path d="M152.69 860.62L152.69 860.62" stroke="hsla(350, 18.7%, 100%, 0.23)" stroke-width="1.5"></path><path d="M152.69 860.62L234.12 841.22" stroke="hsla(350, 18.7%, 100%, 0.23)" stroke-width="1.5"></path><path d="M152.69 860.62L59.73 850.9" stroke="hsla(350, 18.7%, 100%, 0.23)" stroke-width="1.5"></path><path d="M359.99 631.81L359.99 631.81" stroke="hsla(350, 18.7%, 100%, 0.23)" stroke-width="1.5"></path><path d="M359.99 631.81L362.04 573.69" stroke="hsla(350, 18.7%, 100%, 0.23)" stroke-width="1.5"></path><path d="M359.99 631.81L456.01 627.02" stroke="hsla(350, 18.7%, 100%, 0.23)" stroke-width="1.5"></path><path d="M359.99 631.81L251.62 634.48" stroke="hsla(350, 18.7%, 100%, 0.23)" stroke-width="1.5"></path><path d="M359.99 631.81L426.29 543.7" stroke="hsla(350, 18.7%, 100%, 0.23)" stroke-width="1.5"></path><path d="M359.99 631.81L349.34 760.22" stroke="hsla(350, 18.7%, 100%, 0.23)" stroke-width="1.5"></path><path d="M359.99 631.81L448.51 742.39" stroke="hsla(350, 18.7%, 100%, 0.23)" stroke-width="1.5"></path><path d="M426.29 543.7L426.29 543.7" stroke="hsla(350, 18.7%, 100%, 0.23)" stroke-width="1.5"></path><path d="M426.29 543.7L362.04 573.69" stroke="hsla(350, 18.7%, 100%, 0.23)" stroke-width="1.5"></path><path d="M426.29 543.7L456.01 627.02" stroke="hsla(350, 18.7%, 100%, 0.23)" stroke-width="1.5"></path><path d="M426.29 543.7L356.16 462.23" stroke="hsla(350, 18.7%, 100%, 0.23)" stroke-width="1.5"></path><path d="M448.51 742.39L448.51 742.39" stroke="hsla(350, 18.7%, 100%, 0.23)" stroke-width="1.5"></path><path d="M448.51 742.39L457.85 833.07" stroke="hsla(350, 18.7%, 100%, 0.23)" stroke-width="1.5"></path><path d="M448.51 742.39L349.34 760.22" stroke="hsla(350, 18.7%, 100%, 0.23)" stroke-width="1.5"></path><path d="M448.51 742.39L556.29 760.2" stroke="hsla(350, 18.7%, 100%, 0.23)" stroke-width="1.5"></path><path d="M448.51 742.39L534.96 673.72" stroke="hsla(350, 18.7%, 100%, 0.23)" stroke-width="1.5"></path><path d="M448.51 742.39L456.01 627.02" stroke="hsla(350, 18.7%, 100%, 0.23)" stroke-width="1.5"></path><path d="M448.51 742.39L348.57 829.39" stroke="hsla(350, 18.7%, 100%, 0.23)" stroke-width="1.5"></path><path d="M546.24 -63.3L546.24 -63.3" stroke="hsla(350, 18.7%, 100%, 0.23)" stroke-width="1.5"></path><path d="M546.24 -63.3L563.6 28.5" stroke="hsla(350, 18.7%, 100%, 0.23)" stroke-width="1.5"></path><path d="M546.24 -63.3L449.31 -66.9" stroke="hsla(350, 18.7%, 100%, 0.23)" stroke-width="1.5"></path><path d="M546.24 -63.3L426.45 64.74" stroke="hsla(350, 18.7%, 100%, 0.23)" stroke-width="1.5"></path><path d="M546.24 -63.3L453.76 170.38" stroke="hsla(350, 18.7%, 100%, 0.23)" stroke-width="1.5"></path><path d="M546.24 -63.3L562.16 250.2" stroke="hsla(350, 18.7%, 100%, 0.23)" stroke-width="1.5"></path><path d="M546.24 -63.3L451.58 273.99" stroke="hsla(350, 18.7%, 100%, 0.23)" stroke-width="1.5"></path><path d="M-55.28 661.93L-55.28 661.93" stroke="hsla(350, 18.7%, 100%, 0.23)" stroke-width="1.5"></path><path d="M-55.28 661.93L-72.27 748.35" stroke="hsla(350, 18.7%, 100%, 0.23)" stroke-width="1.5"></path><path d="M-55.28 661.93L64.38 732.38" stroke="hsla(350, 18.7%, 100%, 0.23)" stroke-width="1.5"></path><path d="M-55.28 661.93L-43.13 861.23" stroke="hsla(350, 18.7%, 100%, 0.23)" stroke-width="1.5"></path><path d="M-55.28 661.93L164.49 638.55" stroke="hsla(350, 18.7%, 100%, 0.23)" stroke-width="1.5"></path><path d="M-55.28 661.93L59.73 850.9" stroke="hsla(350, 18.7%, 100%, 0.23)" stroke-width="1.5"></path><path d="M-55.28 661.93L168.17 750.22" stroke="hsla(350, 18.7%, 100%, 0.23)" stroke-width="1.5"></path><path d="M-72.27 748.35L-72.27 748.35" stroke="hsla(350, 18.7%, 100%, 0.23)" stroke-width="1.5"></path><path d="M-43.13 861.23L-43.13 861.23" stroke="hsla(350, 18.7%, 100%, 0.23)" stroke-width="1.5"></path><path d="M-43.13 861.23L59.73 850.9" stroke="hsla(350, 18.7%, 100%, 0.23)" stroke-width="1.5"></path><path d="M-43.13 861.23L-72.27 748.35" stroke="hsla(350, 18.7%, 100%, 0.23)" stroke-width="1.5"></path><path d="M-43.13 861.23L64.38 732.38" stroke="hsla(350, 18.7%, 100%, 0.23)" stroke-width="1.5"></path><path d="M-43.13 861.23L152.69 860.62" stroke="hsla(350, 18.7%, 100%, 0.23)" stroke-width="1.5"></path><path d="M64.38 732.38L64.38 732.38" stroke="hsla(350, 18.7%, 100%, 0.23)" stroke-width="1.5"></path><path d="M64.38 732.38L168.17 750.22" stroke="hsla(350, 18.7%, 100%, 0.23)" stroke-width="1.5"></path><path d="M64.38 732.38L59.73 850.9" stroke="hsla(350, 18.7%, 100%, 0.23)" stroke-width="1.5"></path><path d="M64.38 732.38L164.49 638.55" stroke="hsla(350, 18.7%, 100%, 0.23)" stroke-width="1.5"></path><path d="M59.73 850.9L59.73 850.9" stroke="hsla(350, 18.7%, 100%, 0.23)" stroke-width="1.5"></path><path d="M59.73 850.9L168.17 750.22" stroke="hsla(350, 18.7%, 100%, 0.23)" stroke-width="1.5"></path><path d="M164.49 638.55L164.49 638.55" stroke="hsla(350, 18.7%, 100%, 0.23)" stroke-width="1.5"></path><path d="M164.49 638.55L251.62 634.48" stroke="hsla(350, 18.7%, 100%, 0.23)" stroke-width="1.5"></path><path d="M164.49 638.55L168.17 750.22" stroke="hsla(350, 18.7%, 100%, 0.23)" stroke-width="1.5"></path><path d="M164.49 638.55L229.6 530.64" stroke="hsla(350, 18.7%, 100%, 0.23)" stroke-width="1.5"></path><path d="M164.49 638.55L234.82 748.91" stroke="hsla(350, 18.7%, 100%, 0.23)" stroke-width="1.5"></path><path d="M168.17 750.22L168.17 750.22" stroke="hsla(350, 18.7%, 100%, 0.23)" stroke-width="1.5"></path><path d="M168.17 750.22L234.82 748.91" stroke="hsla(350, 18.7%, 100%, 0.23)" stroke-width="1.5"></path><path d="M168.17 750.22L152.69 860.62" stroke="hsla(350, 18.7%, 100%, 0.23)" stroke-width="1.5"></path><path d="M229.6 530.64L229.6 530.64" stroke="hsla(350, 18.7%, 100%, 0.23)" stroke-width="1.5"></path><path d="M229.6 530.64L251.62 634.48" stroke="hsla(350, 18.7%, 100%, 0.23)" stroke-width="1.5"></path><path d="M229.6 530.64L362.04 573.69" stroke="hsla(350, 18.7%, 100%, 0.23)" stroke-width="1.5"></path><path d="M229.6 530.64L356.16 462.23" stroke="hsla(350, 18.7%, 100%, 0.23)" stroke-width="1.5"></path><path d="M229.6 530.64L359.99 631.81" stroke="hsla(350, 18.7%, 100%, 0.23)" stroke-width="1.5"></path><path d="M229.6 530.64L426.29 543.7" stroke="hsla(350, 18.7%, 100%, 0.23)" stroke-width="1.5"></path><path d="M251.62 634.48L251.62 634.48" stroke="hsla(350, 18.7%, 100%, 0.23)" stroke-width="1.5"></path><path d="M251.62 634.48L234.82 748.91" stroke="hsla(350, 18.7%, 100%, 0.23)" stroke-width="1.5"></path><path d="M251.62 634.48L362.04 573.69" stroke="hsla(350, 18.7%, 100%, 0.23)" stroke-width="1.5"></path><path d="M251.62 634.48L168.17 750.22" stroke="hsla(350, 18.7%, 100%, 0.23)" stroke-width="1.5"></path><path d="M234.82 748.91L234.82 748.91" stroke="hsla(350, 18.7%, 100%, 0.23)" stroke-width="1.5"></path><path d="M234.82 748.91L234.12 841.22" stroke="hsla(350, 18.7%, 100%, 0.23)" stroke-width="1.5"></path><path d="M234.82 748.91L349.34 760.22" stroke="hsla(350, 18.7%, 100%, 0.23)" stroke-width="1.5"></path><path d="M234.82 748.91L152.69 860.62" stroke="hsla(350, 18.7%, 100%, 0.23)" stroke-width="1.5"></path><path d="M234.12 841.22L234.12 841.22" stroke="hsla(350, 18.7%, 100%, 0.23)" stroke-width="1.5"></path><path d="M234.12 841.22L168.17 750.22" stroke="hsla(350, 18.7%, 100%, 0.23)" stroke-width="1.5"></path><path d="M361.92 327.37L361.92 327.37" stroke="hsla(350, 18.7%, 100%, 0.23)" stroke-width="1.5"></path><path d="M361.92 327.37L451.58 273.99" stroke="hsla(350, 18.7%, 100%, 0.23)" stroke-width="1.5"></path><path d="M361.92 327.37L474.74 365.05" stroke="hsla(350, 18.7%, 100%, 0.23)" stroke-width="1.5"></path><path d="M361.92 327.37L356.16 462.23" stroke="hsla(350, 18.7%, 100%, 0.23)" stroke-width="1.5"></path><path d="M356.16 462.23L356.16 462.23" stroke="hsla(350, 18.7%, 100%, 0.23)" stroke-width="1.5"></path><path d="M356.16 462.23L362.04 573.69" stroke="hsla(350, 18.7%, 100%, 0.23)" stroke-width="1.5"></path><path d="M356.16 462.23L474.74 365.05" stroke="hsla(350, 18.7%, 100%, 0.23)" stroke-width="1.5"></path><path d="M362.04 573.69L362.04 573.69" stroke="hsla(350, 18.7%, 100%, 0.23)" stroke-width="1.5"></path><path d="M349.34 760.22L349.34 760.22" stroke="hsla(350, 18.7%, 100%, 0.23)" stroke-width="1.5"></path><path d="M349.34 760.22L348.57 829.39" stroke="hsla(350, 18.7%, 100%, 0.23)" stroke-width="1.5"></path><path d="M348.57 829.39L348.57 829.39" stroke="hsla(350, 18.7%, 100%, 0.23)" stroke-width="1.5"></path><path d="M348.57 829.39L457.85 833.07" stroke="hsla(350, 18.7%, 100%, 0.23)" stroke-width="1.5"></path><path d="M348.57 829.39L234.12 841.22" stroke="hsla(350, 18.7%, 100%, 0.23)" stroke-width="1.5"></path><path d="M449.31 -66.9L449.31 -66.9" stroke="hsla(350, 18.7%, 100%, 0.23)" stroke-width="1.5"></path><path d="M449.31 -66.9L426.45 64.74" stroke="hsla(350, 18.7%, 100%, 0.23)" stroke-width="1.5"></path><path d="M426.45 64.74L426.45 64.74" stroke="hsla(350, 18.7%, 100%, 0.23)" stroke-width="1.5"></path><path d="M426.45 64.74L453.76 170.38" stroke="hsla(350, 18.7%, 100%, 0.23)" stroke-width="1.5"></path><path d="M426.45 64.74L563.6 28.5" stroke="hsla(350, 18.7%, 100%, 0.23)" stroke-width="1.5"></path><path d="M426.45 64.74L451.58 273.99" stroke="hsla(350, 18.7%, 100%, 0.23)" stroke-width="1.5"></path><path d="M426.45 64.74L562.16 250.2" stroke="hsla(350, 18.7%, 100%, 0.23)" stroke-width="1.5"></path><path d="M453.76 170.38L453.76 170.38" stroke="hsla(350, 18.7%, 100%, 0.23)" stroke-width="1.5"></path><path d="M453.76 170.38L451.58 273.99" stroke="hsla(350, 18.7%, 100%, 0.23)" stroke-width="1.5"></path><path d="M451.58 273.99L451.58 273.99" stroke="hsla(350, 18.7%, 100%, 0.23)" stroke-width="1.5"></path><path d="M451.58 273.99L474.74 365.05" stroke="hsla(350, 18.7%, 100%, 0.23)" stroke-width="1.5"></path><path d="M474.74 365.05L474.74 365.05" stroke="hsla(350, 18.7%, 100%, 0.23)" stroke-width="1.5"></path><path d="M474.74 365.05L574.76 341.11" stroke="hsla(350, 18.7%, 100%, 0.23)" stroke-width="1.5"></path><path d="M456.01 627.02L456.01 627.02" stroke="hsla(350, 18.7%, 100%, 0.23)" stroke-width="1.5"></path><path d="M456.01 627.02L534.96 673.72" stroke="hsla(350, 18.7%, 100%, 0.23)" stroke-width="1.5"></path><path d="M457.85 833.07L457.85 833.07" stroke="hsla(350, 18.7%, 100%, 0.23)" stroke-width="1.5"></path><path d="M563.6 28.5L563.6 28.5" stroke="hsla(350, 18.7%, 100%, 0.23)" stroke-width="1.5"></path><path d="M562.16 250.2L562.16 250.2" stroke="hsla(350, 18.7%, 100%, 0.23)" stroke-width="1.5"></path><path d="M562.16 250.2L574.76 341.11" stroke="hsla(350, 18.7%, 100%, 0.23)" stroke-width="1.5"></path><path d="M562.16 250.2L451.58 273.99" stroke="hsla(350, 18.7%, 100%, 0.23)" stroke-width="1.5"></path><path d="M562.16 250.2L453.76 170.38" stroke="hsla(350, 18.7%, 100%, 0.23)" stroke-width="1.5"></path><path d="M562.16 250.2L474.74 365.05" stroke="hsla(350, 18.7%, 100%, 0.23)" stroke-width="1.5"></path><path d="M574.76 341.11L574.76 341.11" stroke="hsla(350, 18.7%, 100%, 0.23)" stroke-width="1.5"></path><path d="M574.76 341.11L570.22 440.28" stroke="hsla(350, 18.7%, 100%, 0.23)" stroke-width="1.5"></path><path d="M570.22 440.28L570.22 440.28" stroke="hsla(350, 18.7%, 100%, 0.23)" stroke-width="1.5"></path><path d="M570.22 440.28L572.8 546.2" stroke="hsla(350, 18.7%, 100%, 0.23)" stroke-width="1.5"></path><path d="M570.22 440.28L474.74 365.05" stroke="hsla(350, 18.7%, 100%, 0.23)" stroke-width="1.5"></path><path d="M570.22 440.28L426.29 543.7" stroke="hsla(350, 18.7%, 100%, 0.23)" stroke-width="1.5"></path><path d="M570.22 440.28L562.16 250.2" stroke="hsla(350, 18.7%, 100%, 0.23)" stroke-width="1.5"></path><path d="M572.8 546.2L572.8 546.2" stroke="hsla(350, 18.7%, 100%, 0.23)" stroke-width="1.5"></path><path d="M572.8 546.2L534.96 673.72" stroke="hsla(350, 18.7%, 100%, 0.23)" stroke-width="1.5"></path><path d="M534.96 673.72L534.96 673.72" stroke="hsla(350, 18.7%, 100%, 0.23)" stroke-width="1.5"></path><path d="M534.96 673.72L556.29 760.2" stroke="hsla(350, 18.7%, 100%, 0.23)" stroke-width="1.5"></path><path d="M534.96 673.72L426.29 543.7" stroke="hsla(350, 18.7%, 100%, 0.23)" stroke-width="1.5"></path><path d="M556.29 760.2L556.29 760.2" stroke="hsla(350, 18.7%, 100%, 0.23)" stroke-width="1.5"></path><path d="M568.86 864.4L568.86 864.4" stroke="hsla(350, 18.7%, 100%, 0.23)" stroke-width="1.5"></path><path d="M568.86 864.4L556.29 760.2" stroke="hsla(350, 18.7%, 100%, 0.23)" stroke-width="1.5"></path><path d="M568.86 864.4L457.85 833.07" stroke="hsla(350, 18.7%, 100%, 0.23)" stroke-width="1.5"></path><path d="M568.86 864.4L448.51 742.39" stroke="hsla(350, 18.7%, 100%, 0.23)" stroke-width="1.5"></path><path d="M568.86 864.4L534.96 673.72" stroke="hsla(350, 18.7%, 100%, 0.23)" stroke-width="1.5"></path><circle r="25" cx="152.69" cy="860.62" fill="url(#SvgjsRadialGradient1083)"></circle><circle r="25" cx="359.99" cy="631.81" fill="url(#SvgjsRadialGradient1083)"></circle><circle r="25" cx="426.29" cy="543.7" fill="url(#SvgjsRadialGradient1083)"></circle><circle r="25" cx="448.51" cy="742.39" fill="url(#SvgjsRadialGradient1083)"></circle><circle r="25" cx="546.24" cy="-63.3" fill="url(#SvgjsRadialGradient1083)"></circle><circle r="5" cx="-55.28" cy="661.93" fill="rgba(254, 253, 253, 0.615)"></circle><circle r="5" cx="-72.27" cy="748.35" fill="rgba(254, 253, 253, 0.615)"></circle><circle r="5" cx="-43.13" cy="861.23" fill="rgba(254, 253, 253, 0.615)"></circle><circle r="5" cx="64.38" cy="732.38" fill="rgba(254, 253, 253, 0.615)"></circle><circle r="5" cx="59.73" cy="850.9" fill="rgba(254, 253, 253, 0.615)"></circle><circle r="5" cx="164.49" cy="638.55" fill="rgba(254, 253, 253, 0.615)"></circle><circle r="5" cx="168.17" cy="750.22" fill="rgba(254, 253, 253, 0.615)"></circle><circle r="5" cx="229.6" cy="530.64" fill="rgba(254, 253, 253, 0.615)"></circle><circle r="5" cx="251.62" cy="634.48" fill="rgba(254, 253, 253, 0.615)"></circle><circle r="5" cx="234.82" cy="748.91" fill="rgba(254, 253, 253, 0.615)"></circle><circle r="5" cx="234.12" cy="841.22" fill="rgba(254, 253, 253, 0.615)"></circle><circle r="5" cx="361.92" cy="327.37" fill="rgba(254, 253, 253, 0.615)"></circle><circle r="5" cx="356.16" cy="462.23" fill="rgba(254, 253, 253, 0.615)"></circle><circle r="5" cx="362.04" cy="573.69" fill="rgba(254, 253, 253, 0.615)"></circle><circle r="5" cx="349.34" cy="760.22" fill="rgba(254, 253, 253, 0.615)"></circle><circle r="5" cx="348.57" cy="829.39" fill="rgba(254, 253, 253, 0.615)"></circle><circle r="5" cx="449.31" cy="-66.9" fill="rgba(254, 253, 253, 0.615)"></circle><circle r="5" cx="426.45" cy="64.74" fill="rgba(254, 253, 253, 0.615)"></circle><circle r="5" cx="453.76" cy="170.38" fill="rgba(254, 253, 253, 0.615)"></circle><circle r="5" cx="451.58" cy="273.99" fill="rgba(254, 253, 253, 0.615)"></circle><circle r="5" cx="474.74" cy="365.05" fill="rgba(254, 253, 253, 0.615)"></circle><circle r="5" cx="456.01" cy="627.02" fill="rgba(254, 253, 253, 0.615)"></circle><circle r="5" cx="457.85" cy="833.07" fill="rgba(254, 253, 253, 0.615)"></circle><circle r="5" cx="563.6" cy="28.5" fill="rgba(254, 253, 253, 0.615)"></circle><circle r="5" cx="562.16" cy="250.2" fill="rgba(254, 253, 253, 0.615)"></circle><circle r="5" cx="574.76" cy="341.11" fill="rgba(254, 253, 253, 0.615)"></circle><circle r="5" cx="570.22" cy="440.28" fill="rgba(254, 253, 253, 0.615)"></circle><circle r="5" cx="572.8" cy="546.2" fill="rgba(254, 253, 253, 0.615)"></circle><circle r="5" cx="534.96" cy="673.72" fill="rgba(254, 253, 253, 0.615)"></circle><circle r="5" cx="556.29" cy="760.2" fill="rgba(254, 253, 253, 0.615)"></circle><circle r="5" cx="568.86" cy="864.4" fill="rgba(254, 253, 253, 0.615)"></circle></g><defs><mask id="SvgjsMask1081"><rect width="500" height="800" fill="#ffffff"></rect></mask><linearGradient x1="-15%" y1="90.63%" x2="115%" y2="9.38%" gradientUnits="userSpaceOnUse" id="SvgjsLinearGradient1082"><stop stop-color="#0e2a47" offset="0"></stop><stop stop-color="rgba(36, 2, 62, 1)" offset="1"></stop></linearGradient><radialGradient id="SvgjsRadialGradient1083"><stop stop-color="#ffffff" offset="0.1"></stop><stop stop-color="rgba(242, 236, 237, 0.23)" offset="0.2"></stop><stop stop-color="rgba(242, 236, 237, 0)" offset="1"></stop></radialGradient></defs></svg>