<svg xmlns="http://www.w3.org/2000/svg" version="1.1" xmlns:xlink="http://www.w3.org/1999/xlink" xmlns:svgjs="http://svgjs.com/svgjs" width="500" height="800" preserveAspectRatio="none" viewBox="0 0 500 800"><g mask="url(&quot;#SvgjsMask1063&quot;)" fill="none"><rect width="500" height="800" x="0" y="0" fill="url(#SvgjsLinearGradient1064)"></rect><path d="M-28.13 556.22L-28.13 556.22" stroke="rgba(237, 100, 166, 0.39)" stroke-width="1.5"></path><path d="M-28.13 556.22L47.12 535.48" stroke="rgba(237, 100, 166, 0.39)" stroke-width="1.5"></path><path d="M-28.13 556.22L33.51 662.9" stroke="rgba(237, 100, 166, 0.39)" stroke-width="1.5"></path><path d="M-26.96 773.14L-26.96 773.14" stroke="rgba(237, 100, 166, 0.39)" stroke-width="1.5"></path><path d="M-26.96 773.14L-52.98 864.82" stroke="rgba(237, 100, 166, 0.39)" stroke-width="1.5"></path><path d="M-26.96 773.14L59.38 730.78" stroke="rgba(237, 100, 166, 0.39)" stroke-width="1.5"></path><path d="M-26.96 773.14L33.51 662.9" stroke="rgba(237, 100, 166, 0.39)" stroke-width="1.5"></path><path d="M-26.96 773.14L71.14 854.2" stroke="rgba(237, 100, 166, 0.39)" stroke-width="1.5"></path><path d="M-26.96 773.14L167.7 748.64" stroke="rgba(237, 100, 166, 0.39)" stroke-width="1.5"></path><path d="M-52.98 864.82L-52.98 864.82" stroke="rgba(237, 100, 166, 0.39)" stroke-width="1.5"></path><path d="M-52.98 864.82L71.14 854.2" stroke="rgba(237, 100, 166, 0.39)" stroke-width="1.5"></path><path d="M-52.98 864.82L59.38 730.78" stroke="rgba(237, 100, 166, 0.39)" stroke-width="1.5"></path><path d="M-52.98 864.82L159.58 843.25" stroke="rgba(237, 100, 166, 0.39)" stroke-width="1.5"></path><path d="M-52.98 864.82L33.51 662.9" stroke="rgba(237, 100, 166, 0.39)" stroke-width="1.5"></path><path d="M47.12 535.48L47.12 535.48" stroke="rgba(237, 100, 166, 0.39)" stroke-width="1.5"></path><path d="M47.12 535.48L152.81 534.24" stroke="rgba(237, 100, 166, 0.39)" stroke-width="1.5"></path><path d="M47.12 535.48L126.38 436.75" stroke="rgba(237, 100, 166, 0.39)" stroke-width="1.5"></path><path d="M47.12 535.48L33.51 662.9" stroke="rgba(237, 100, 166, 0.39)" stroke-width="1.5"></path><path d="M47.12 535.48L163.87 635.05" stroke="rgba(237, 100, 166, 0.39)" stroke-width="1.5"></path><path d="M47.12 535.48L231.6 572.13" stroke="rgba(237, 100, 166, 0.39)" stroke-width="1.5"></path><path d="M33.51 662.9L33.51 662.9" stroke="rgba(237, 100, 166, 0.39)" stroke-width="1.5"></path><path d="M33.51 662.9L59.38 730.78" stroke="rgba(237, 100, 166, 0.39)" stroke-width="1.5"></path><path d="M59.38 730.78L59.38 730.78" stroke="rgba(237, 100, 166, 0.39)" stroke-width="1.5"></path><path d="M71.14 854.2L71.14 854.2" stroke="rgba(237, 100, 166, 0.39)" stroke-width="1.5"></path><path d="M71.14 854.2L159.58 843.25" stroke="rgba(237, 100, 166, 0.39)" stroke-width="1.5"></path><path d="M71.14 854.2L59.38 730.78" stroke="rgba(237, 100, 166, 0.39)" stroke-width="1.5"></path><path d="M126.38 436.75L126.38 436.75" stroke="rgba(237, 100, 166, 0.39)" stroke-width="1.5"></path><path d="M126.38 436.75L152.81 534.24" stroke="rgba(237, 100, 166, 0.39)" stroke-width="1.5"></path><path d="M126.38 436.75L230.95 428" stroke="rgba(237, 100, 166, 0.39)" stroke-width="1.5"></path><path d="M126.38 436.75L249.55 329.1" stroke="rgba(237, 100, 166, 0.39)" stroke-width="1.5"></path><path d="M152.81 534.24L152.81 534.24" stroke="rgba(237, 100, 166, 0.39)" stroke-width="1.5"></path><path d="M152.81 534.24L231.6 572.13" stroke="rgba(237, 100, 166, 0.39)" stroke-width="1.5"></path><path d="M152.81 534.24L163.87 635.05" stroke="rgba(237, 100, 166, 0.39)" stroke-width="1.5"></path><path d="M152.81 534.24L230.95 428" stroke="rgba(237, 100, 166, 0.39)" stroke-width="1.5"></path><path d="M152.81 534.24L263.9 626.09" stroke="rgba(237, 100, 166, 0.39)" stroke-width="1.5"></path><path d="M163.87 635.05L163.87 635.05" stroke="rgba(237, 100, 166, 0.39)" stroke-width="1.5"></path><path d="M163.87 635.05L231.6 572.13" stroke="rgba(237, 100, 166, 0.39)" stroke-width="1.5"></path><path d="M163.87 635.05L263.9 626.09" stroke="rgba(237, 100, 166, 0.39)" stroke-width="1.5"></path><path d="M167.7 748.64L167.7 748.64" stroke="rgba(237, 100, 166, 0.39)" stroke-width="1.5"></path><path d="M167.7 748.64L159.58 843.25" stroke="rgba(237, 100, 166, 0.39)" stroke-width="1.5"></path><path d="M167.7 748.64L59.38 730.78" stroke="rgba(237, 100, 166, 0.39)" stroke-width="1.5"></path><path d="M167.7 748.64L163.87 635.05" stroke="rgba(237, 100, 166, 0.39)" stroke-width="1.5"></path><path d="M167.7 748.64L71.14 854.2" stroke="rgba(237, 100, 166, 0.39)" stroke-width="1.5"></path><path d="M167.7 748.64L254.74 864.31" stroke="rgba(237, 100, 166, 0.39)" stroke-width="1.5"></path><path d="M167.7 748.64L263.9 626.09" stroke="rgba(237, 100, 166, 0.39)" stroke-width="1.5"></path><path d="M159.58 843.25L159.58 843.25" stroke="rgba(237, 100, 166, 0.39)" stroke-width="1.5"></path><path d="M159.58 843.25L254.74 864.31" stroke="rgba(237, 100, 166, 0.39)" stroke-width="1.5"></path><path d="M159.58 843.25L59.38 730.78" stroke="rgba(237, 100, 166, 0.39)" stroke-width="1.5"></path><path d="M159.58 843.25L327.1 833.93" stroke="rgba(237, 100, 166, 0.39)" stroke-width="1.5"></path><path d="M249.55 329.1L249.55 329.1" stroke="rgba(237, 100, 166, 0.39)" stroke-width="1.5"></path><path d="M249.55 329.1L230.95 428" stroke="rgba(237, 100, 166, 0.39)" stroke-width="1.5"></path><path d="M249.55 329.1L348.08 369.75" stroke="rgba(237, 100, 166, 0.39)" stroke-width="1.5"></path><path d="M249.55 329.1L354.23 230.03" stroke="rgba(237, 100, 166, 0.39)" stroke-width="1.5"></path><path d="M230.95 428L230.95 428" stroke="rgba(237, 100, 166, 0.39)" stroke-width="1.5"></path><path d="M230.95 428L348.08 369.75" stroke="rgba(237, 100, 166, 0.39)" stroke-width="1.5"></path><path d="M230.95 428L231.6 572.13" stroke="rgba(237, 100, 166, 0.39)" stroke-width="1.5"></path><path d="M230.95 428L338.93 536.74" stroke="rgba(237, 100, 166, 0.39)" stroke-width="1.5"></path><path d="M231.6 572.13L231.6 572.13" stroke="rgba(237, 100, 166, 0.39)" stroke-width="1.5"></path><path d="M231.6 572.13L263.9 626.09" stroke="rgba(237, 100, 166, 0.39)" stroke-width="1.5"></path><path d="M263.9 626.09L263.9 626.09" stroke="rgba(237, 100, 166, 0.39)" stroke-width="1.5"></path><path d="M263.9 626.09L352.48 664.33" stroke="rgba(237, 100, 166, 0.39)" stroke-width="1.5"></path><path d="M263.9 626.09L338.93 536.74" stroke="rgba(237, 100, 166, 0.39)" stroke-width="1.5"></path><path d="M263.9 626.09L339.17 757.38" stroke="rgba(237, 100, 166, 0.39)" stroke-width="1.5"></path><path d="M254.74 864.31L254.74 864.31" stroke="rgba(237, 100, 166, 0.39)" stroke-width="1.5"></path><path d="M254.74 864.31L327.1 833.93" stroke="rgba(237, 100, 166, 0.39)" stroke-width="1.5"></path><path d="M254.74 864.31L339.17 757.38" stroke="rgba(237, 100, 166, 0.39)" stroke-width="1.5"></path><path d="M254.74 864.31L71.14 854.2" stroke="rgba(237, 100, 166, 0.39)" stroke-width="1.5"></path><path d="M359.61 -45.51L359.61 -45.51" stroke="rgba(237, 100, 166, 0.39)" stroke-width="1.5"></path><path d="M359.61 -45.51L448.11 -66.78" stroke="rgba(237, 100, 166, 0.39)" stroke-width="1.5"></path><path d="M359.61 -45.51L374.62 51.49" stroke="rgba(237, 100, 166, 0.39)" stroke-width="1.5"></path><path d="M359.61 -45.51L468.36 42.42" stroke="rgba(237, 100, 166, 0.39)" stroke-width="1.5"></path><path d="M359.61 -45.51L530.44 -32.22" stroke="rgba(237, 100, 166, 0.39)" stroke-width="1.5"></path><path d="M374.62 51.49L374.62 51.49" stroke="rgba(237, 100, 166, 0.39)" stroke-width="1.5"></path><path d="M374.62 51.49L468.36 42.42" stroke="rgba(237, 100, 166, 0.39)" stroke-width="1.5"></path><path d="M374.62 51.49L342.73 150.58" stroke="rgba(237, 100, 166, 0.39)" stroke-width="1.5"></path><path d="M342.73 150.58L342.73 150.58" stroke="rgba(237, 100, 166, 0.39)" stroke-width="1.5"></path><path d="M342.73 150.58L354.23 230.03" stroke="rgba(237, 100, 166, 0.39)" stroke-width="1.5"></path><path d="M342.73 150.58L434.12 144.78" stroke="rgba(237, 100, 166, 0.39)" stroke-width="1.5"></path><path d="M342.73 150.58L468.36 42.42" stroke="rgba(237, 100, 166, 0.39)" stroke-width="1.5"></path><path d="M342.73 150.58L465.74 267.97" stroke="rgba(237, 100, 166, 0.39)" stroke-width="1.5"></path><path d="M354.23 230.03L354.23 230.03" stroke="rgba(237, 100, 166, 0.39)" stroke-width="1.5"></path><path d="M348.08 369.75L348.08 369.75" stroke="rgba(237, 100, 166, 0.39)" stroke-width="1.5"></path><path d="M348.08 369.75L456.96 344.57" stroke="rgba(237, 100, 166, 0.39)" stroke-width="1.5"></path><path d="M348.08 369.75L451.1 442.2" stroke="rgba(237, 100, 166, 0.39)" stroke-width="1.5"></path><path d="M348.08 369.75L354.23 230.03" stroke="rgba(237, 100, 166, 0.39)" stroke-width="1.5"></path><path d="M338.93 536.74L338.93 536.74" stroke="rgba(237, 100, 166, 0.39)" stroke-width="1.5"></path><path d="M338.93 536.74L439.15 548.2" stroke="rgba(237, 100, 166, 0.39)" stroke-width="1.5"></path><path d="M338.93 536.74L231.6 572.13" stroke="rgba(237, 100, 166, 0.39)" stroke-width="1.5"></path><path d="M338.93 536.74L352.48 664.33" stroke="rgba(237, 100, 166, 0.39)" stroke-width="1.5"></path><path d="M338.93 536.74L451.1 442.2" stroke="rgba(237, 100, 166, 0.39)" stroke-width="1.5"></path><path d="M352.48 664.33L352.48 664.33" stroke="rgba(237, 100, 166, 0.39)" stroke-width="1.5"></path><path d="M352.48 664.33L339.17 757.38" stroke="rgba(237, 100, 166, 0.39)" stroke-width="1.5"></path><path d="M352.48 664.33L466.91 740.16" stroke="rgba(237, 100, 166, 0.39)" stroke-width="1.5"></path><path d="M352.48 664.33L439.15 548.2" stroke="rgba(237, 100, 166, 0.39)" stroke-width="1.5"></path><path d="M339.17 757.38L339.17 757.38" stroke="rgba(237, 100, 166, 0.39)" stroke-width="1.5"></path><path d="M339.17 757.38L327.1 833.93" stroke="rgba(237, 100, 166, 0.39)" stroke-width="1.5"></path><path d="M327.1 833.93L327.1 833.93" stroke="rgba(237, 100, 166, 0.39)" stroke-width="1.5"></path><path d="M448.11 -66.78L448.11 -66.78" stroke="rgba(237, 100, 166, 0.39)" stroke-width="1.5"></path><path d="M448.11 -66.78L530.44 -32.22" stroke="rgba(237, 100, 166, 0.39)" stroke-width="1.5"></path><path d="M448.11 -66.78L468.36 42.42" stroke="rgba(237, 100, 166, 0.39)" stroke-width="1.5"></path><path d="M448.11 -66.78L539.69 37.46" stroke="rgba(237, 100, 166, 0.39)" stroke-width="1.5"></path><path d="M448.11 -66.78L374.62 51.49" stroke="rgba(237, 100, 166, 0.39)" stroke-width="1.5"></path><path d="M448.11 -66.78L434.12 144.78" stroke="rgba(237, 100, 166, 0.39)" stroke-width="1.5"></path><path d="M468.36 42.42L468.36 42.42" stroke="rgba(237, 100, 166, 0.39)" stroke-width="1.5"></path><path d="M468.36 42.42L539.69 37.46" stroke="rgba(237, 100, 166, 0.39)" stroke-width="1.5"></path><path d="M468.36 42.42L530.44 -32.22" stroke="rgba(237, 100, 166, 0.39)" stroke-width="1.5"></path><path d="M468.36 42.42L434.12 144.78" stroke="rgba(237, 100, 166, 0.39)" stroke-width="1.5"></path><path d="M434.12 144.78L434.12 144.78" stroke="rgba(237, 100, 166, 0.39)" stroke-width="1.5"></path><path d="M434.12 144.78L374.62 51.49" stroke="rgba(237, 100, 166, 0.39)" stroke-width="1.5"></path><path d="M434.12 144.78L548.72 157.76" stroke="rgba(237, 100, 166, 0.39)" stroke-width="1.5"></path><path d="M465.74 267.97L465.74 267.97" stroke="rgba(237, 100, 166, 0.39)" stroke-width="1.5"></path><path d="M465.74 267.97L530.18 269.89" stroke="rgba(237, 100, 166, 0.39)" stroke-width="1.5"></path><path d="M465.74 267.97L456.96 344.57" stroke="rgba(237, 100, 166, 0.39)" stroke-width="1.5"></path><path d="M465.74 267.97L354.23 230.03" stroke="rgba(237, 100, 166, 0.39)" stroke-width="1.5"></path><path d="M456.96 344.57L456.96 344.57" stroke="rgba(237, 100, 166, 0.39)" stroke-width="1.5"></path><path d="M456.96 344.57L451.1 442.2" stroke="rgba(237, 100, 166, 0.39)" stroke-width="1.5"></path><path d="M456.96 344.57L530.18 269.89" stroke="rgba(237, 100, 166, 0.39)" stroke-width="1.5"></path><path d="M456.96 344.57L532.63 469.2" stroke="rgba(237, 100, 166, 0.39)" stroke-width="1.5"></path><path d="M456.96 344.57L354.23 230.03" stroke="rgba(237, 100, 166, 0.39)" stroke-width="1.5"></path><path d="M451.1 442.2L451.1 442.2" stroke="rgba(237, 100, 166, 0.39)" stroke-width="1.5"></path><path d="M451.1 442.2L532.63 469.2" stroke="rgba(237, 100, 166, 0.39)" stroke-width="1.5"></path><path d="M451.1 442.2L439.15 548.2" stroke="rgba(237, 100, 166, 0.39)" stroke-width="1.5"></path><path d="M439.15 548.2L439.15 548.2" stroke="rgba(237, 100, 166, 0.39)" stroke-width="1.5"></path><path d="M466.91 740.16L466.91 740.16" stroke="rgba(237, 100, 166, 0.39)" stroke-width="1.5"></path><path d="M466.91 740.16L554.76 732.71" stroke="rgba(237, 100, 166, 0.39)" stroke-width="1.5"></path><path d="M466.91 740.16L446.66 830.72" stroke="rgba(237, 100, 166, 0.39)" stroke-width="1.5"></path><path d="M466.91 740.16L539.11 833.62" stroke="rgba(237, 100, 166, 0.39)" stroke-width="1.5"></path><path d="M466.91 740.16L339.17 757.38" stroke="rgba(237, 100, 166, 0.39)" stroke-width="1.5"></path><path d="M466.91 740.16L327.1 833.93" stroke="rgba(237, 100, 166, 0.39)" stroke-width="1.5"></path><path d="M446.66 830.72L446.66 830.72" stroke="rgba(237, 100, 166, 0.39)" stroke-width="1.5"></path><path d="M446.66 830.72L539.11 833.62" stroke="rgba(237, 100, 166, 0.39)" stroke-width="1.5"></path><path d="M446.66 830.72L327.1 833.93" stroke="rgba(237, 100, 166, 0.39)" stroke-width="1.5"></path><path d="M446.66 830.72L339.17 757.38" stroke="rgba(237, 100, 166, 0.39)" stroke-width="1.5"></path><path d="M446.66 830.72L554.76 732.71" stroke="rgba(237, 100, 166, 0.39)" stroke-width="1.5"></path><path d="M446.66 830.72L352.48 664.33" stroke="rgba(237, 100, 166, 0.39)" stroke-width="1.5"></path><path d="M530.44 -32.22L530.44 -32.22" stroke="rgba(237, 100, 166, 0.39)" stroke-width="1.5"></path><path d="M530.44 -32.22L539.69 37.46" stroke="rgba(237, 100, 166, 0.39)" stroke-width="1.5"></path><path d="M530.44 -32.22L374.62 51.49" stroke="rgba(237, 100, 166, 0.39)" stroke-width="1.5"></path><path d="M539.69 37.46L539.69 37.46" stroke="rgba(237, 100, 166, 0.39)" stroke-width="1.5"></path><path d="M539.69 37.46L548.72 157.76" stroke="rgba(237, 100, 166, 0.39)" stroke-width="1.5"></path><path d="M539.69 37.46L434.12 144.78" stroke="rgba(237, 100, 166, 0.39)" stroke-width="1.5"></path><path d="M539.69 37.46L374.62 51.49" stroke="rgba(237, 100, 166, 0.39)" stroke-width="1.5"></path><path d="M548.72 157.76L548.72 157.76" stroke="rgba(237, 100, 166, 0.39)" stroke-width="1.5"></path><path d="M548.72 157.76L530.18 269.89" stroke="rgba(237, 100, 166, 0.39)" stroke-width="1.5"></path><path d="M548.72 157.76L465.74 267.97" stroke="rgba(237, 100, 166, 0.39)" stroke-width="1.5"></path><path d="M530.18 269.89L530.18 269.89" stroke="rgba(237, 100, 166, 0.39)" stroke-width="1.5"></path><path d="M532.63 469.2L532.63 469.2" stroke="rgba(237, 100, 166, 0.39)" stroke-width="1.5"></path><path d="M532.63 469.2L565.1 570.46" stroke="rgba(237, 100, 166, 0.39)" stroke-width="1.5"></path><path d="M565.1 570.46L565.1 570.46" stroke="rgba(237, 100, 166, 0.39)" stroke-width="1.5"></path><path d="M565.1 570.46L439.15 548.2" stroke="rgba(237, 100, 166, 0.39)" stroke-width="1.5"></path><path d="M565.1 570.46L554.76 732.71" stroke="rgba(237, 100, 166, 0.39)" stroke-width="1.5"></path><path d="M554.76 732.71L554.76 732.71" stroke="rgba(237, 100, 166, 0.39)" stroke-width="1.5"></path><path d="M554.76 732.71L539.11 833.62" stroke="rgba(237, 100, 166, 0.39)" stroke-width="1.5"></path><path d="M554.76 732.71L352.48 664.33" stroke="rgba(237, 100, 166, 0.39)" stroke-width="1.5"></path><path d="M539.11 833.62L539.11 833.62" stroke="rgba(237, 100, 166, 0.39)" stroke-width="1.5"></path><path d="M539.11 833.62L327.1 833.93" stroke="rgba(237, 100, 166, 0.39)" stroke-width="1.5"></path><circle r="5" cx="-28.13" cy="556.22" fill="rgba(237, 100, 166, 0.39)"></circle><circle r="5" cx="-26.96" cy="773.14" fill="rgba(237, 100, 166, 0.39)"></circle><circle r="5" cx="-52.98" cy="864.82" fill="rgba(237, 100, 166, 0.39)"></circle><circle r="5" cx="47.12" cy="535.48" fill="rgba(237, 100, 166, 0.39)"></circle><circle r="5" cx="33.51" cy="662.9" fill="rgba(237, 100, 166, 0.39)"></circle><circle r="5" cx="59.38" cy="730.78" fill="rgba(237, 100, 166, 0.39)"></circle><circle r="5" cx="71.14" cy="854.2" fill="rgba(237, 100, 166, 0.39)"></circle><circle r="5" cx="126.38" cy="436.75" fill="rgba(237, 100, 166, 0.39)"></circle><circle r="5" cx="152.81" cy="534.24" fill="rgba(237, 100, 166, 0.39)"></circle><circle r="5" cx="163.87" cy="635.05" fill="rgba(237, 100, 166, 0.39)"></circle><circle r="5" cx="167.7" cy="748.64" fill="rgba(237, 100, 166, 0.39)"></circle><circle r="5" cx="159.58" cy="843.25" fill="rgba(237, 100, 166, 0.39)"></circle><circle r="5" cx="249.55" cy="329.1" fill="rgba(237, 100, 166, 0.39)"></circle><circle r="5" cx="230.95" cy="428" fill="rgba(237, 100, 166, 0.39)"></circle><circle r="5" cx="231.6" cy="572.13" fill="rgba(237, 100, 166, 0.39)"></circle><circle r="5" cx="263.9" cy="626.09" fill="rgba(237, 100, 166, 0.39)"></circle><circle r="5" cx="254.74" cy="864.31" fill="rgba(237, 100, 166, 0.39)"></circle><circle r="5" cx="359.61" cy="-45.51" fill="rgba(237, 100, 166, 0.39)"></circle><circle r="5" cx="374.62" cy="51.49" fill="rgba(237, 100, 166, 0.39)"></circle><circle r="5" cx="342.73" cy="150.58" fill="rgba(237, 100, 166, 0.39)"></circle><circle r="5" cx="354.23" cy="230.03" fill="rgba(237, 100, 166, 0.39)"></circle><circle r="5" cx="348.08" cy="369.75" fill="rgba(237, 100, 166, 0.39)"></circle><circle r="5" cx="338.93" cy="536.74" fill="rgba(237, 100, 166, 0.39)"></circle><circle r="5" cx="352.48" cy="664.33" fill="rgba(237, 100, 166, 0.39)"></circle><circle r="5" cx="339.17" cy="757.38" fill="rgba(237, 100, 166, 0.39)"></circle><circle r="5" cx="327.1" cy="833.93" fill="rgba(237, 100, 166, 0.39)"></circle><circle r="5" cx="448.11" cy="-66.78" fill="rgba(237, 100, 166, 0.39)"></circle><circle r="5" cx="468.36" cy="42.42" fill="rgba(237, 100, 166, 0.39)"></circle><circle r="5" cx="434.12" cy="144.78" fill="rgba(237, 100, 166, 0.39)"></circle><circle r="5" cx="465.74" cy="267.97" fill="rgba(237, 100, 166, 0.39)"></circle><circle r="5" cx="456.96" cy="344.57" fill="rgba(237, 100, 166, 0.39)"></circle><circle r="5" cx="451.1" cy="442.2" fill="rgba(237, 100, 166, 0.39)"></circle><circle r="5" cx="439.15" cy="548.2" fill="rgba(237, 100, 166, 0.39)"></circle><circle r="5" cx="466.91" cy="740.16" fill="rgba(237, 100, 166, 0.39)"></circle><circle r="5" cx="446.66" cy="830.72" fill="rgba(237, 100, 166, 0.39)"></circle><circle r="5" cx="530.44" cy="-32.22" fill="rgba(237, 100, 166, 0.39)"></circle><circle r="5" cx="539.69" cy="37.46" fill="rgba(237, 100, 166, 0.39)"></circle><circle r="5" cx="548.72" cy="157.76" fill="rgba(237, 100, 166, 0.39)"></circle><circle r="5" cx="530.18" cy="269.89" fill="rgba(237, 100, 166, 0.39)"></circle><circle r="5" cx="532.63" cy="469.2" fill="rgba(237, 100, 166, 0.39)"></circle><circle r="5" cx="565.1" cy="570.46" fill="rgba(237, 100, 166, 0.39)"></circle><circle r="5" cx="554.76" cy="732.71" fill="rgba(237, 100, 166, 0.39)"></circle><circle r="5" cx="539.11" cy="833.62" fill="rgba(237, 100, 166, 0.39)"></circle><path d="M54.48 668.84L54.48 668.84" stroke="hsla(350, 18.7%, 100%, 0.34)" stroke-width="1.5"></path><path d="M54.48 668.84L64.15 740.81" stroke="hsla(350, 18.7%, 100%, 0.34)" stroke-width="1.5"></path><path d="M54.48 668.84L147.69 644.18" stroke="hsla(350, 18.7%, 100%, 0.34)" stroke-width="1.5"></path><path d="M64.15 740.81L64.15 740.81" stroke="hsla(350, 18.7%, 100%, 0.34)" stroke-width="1.5"></path><path d="M64.15 740.81L144.09 727.35" stroke="hsla(350, 18.7%, 100%, 0.34)" stroke-width="1.5"></path><path d="M64.15 740.81L-29.65 774.45" stroke="hsla(350, 18.7%, 100%, 0.34)" stroke-width="1.5"></path><path d="M138.57 865.86L138.57 865.86" stroke="hsla(350, 18.7%, 100%, 0.34)" stroke-width="1.5"></path><path d="M138.57 865.86L62.96 867.17" stroke="hsla(350, 18.7%, 100%, 0.34)" stroke-width="1.5"></path><path d="M138.57 865.86L235.99 865.76" stroke="hsla(350, 18.7%, 100%, 0.34)" stroke-width="1.5"></path><path d="M138.57 865.86L144.09 727.35" stroke="hsla(350, 18.7%, 100%, 0.34)" stroke-width="1.5"></path><path d="M138.57 865.86L64.15 740.81" stroke="hsla(350, 18.7%, 100%, 0.34)" stroke-width="1.5"></path><path d="M138.57 865.86L230.4 737.2" stroke="hsla(350, 18.7%, 100%, 0.34)" stroke-width="1.5"></path><path d="M138.57 865.86L-29.65 774.45" stroke="hsla(350, 18.7%, 100%, 0.34)" stroke-width="1.5"></path><path d="M237.97 658.5L237.97 658.5" stroke="hsla(350, 18.7%, 100%, 0.34)" stroke-width="1.5"></path><path d="M237.97 658.5L230.4 737.2" stroke="hsla(350, 18.7%, 100%, 0.34)" stroke-width="1.5"></path><path d="M237.97 658.5L147.69 644.18" stroke="hsla(350, 18.7%, 100%, 0.34)" stroke-width="1.5"></path><path d="M237.97 658.5L144.09 727.35" stroke="hsla(350, 18.7%, 100%, 0.34)" stroke-width="1.5"></path><path d="M237.97 658.5L369.37 637.43" stroke="hsla(350, 18.7%, 100%, 0.34)" stroke-width="1.5"></path><path d="M230.4 737.2L230.4 737.2" stroke="hsla(350, 18.7%, 100%, 0.34)" stroke-width="1.5"></path><path d="M230.4 737.2L144.09 727.35" stroke="hsla(350, 18.7%, 100%, 0.34)" stroke-width="1.5"></path><path d="M230.4 737.2L343.18 756.66" stroke="hsla(350, 18.7%, 100%, 0.34)" stroke-width="1.5"></path><path d="M230.4 737.2L147.69 644.18" stroke="hsla(350, 18.7%, 100%, 0.34)" stroke-width="1.5"></path><path d="M230.4 737.2L235.99 865.76" stroke="hsla(350, 18.7%, 100%, 0.34)" stroke-width="1.5"></path><path d="M449.06 50.42L449.06 50.42" stroke="hsla(350, 18.7%, 100%, 0.34)" stroke-width="1.5"></path><path d="M449.06 50.42L546.41 60.09" stroke="hsla(350, 18.7%, 100%, 0.34)" stroke-width="1.5"></path><path d="M449.06 50.42L464.25 -71.47" stroke="hsla(350, 18.7%, 100%, 0.34)" stroke-width="1.5"></path><path d="M449.06 50.42L554.64 -43.34" stroke="hsla(350, 18.7%, 100%, 0.34)" stroke-width="1.5"></path><path d="M449.06 50.42L573.99 141.08" stroke="hsla(350, 18.7%, 100%, 0.34)" stroke-width="1.5"></path><path d="M449.06 50.42L448.91 240.24" stroke="hsla(350, 18.7%, 100%, 0.34)" stroke-width="1.5"></path><path d="M425.86 569.91L425.86 569.91" stroke="hsla(350, 18.7%, 100%, 0.34)" stroke-width="1.5"></path><path d="M425.86 569.91L467.73 633.21" stroke="hsla(350, 18.7%, 100%, 0.34)" stroke-width="1.5"></path><path d="M425.86 569.91L347.63 570.91" stroke="hsla(350, 18.7%, 100%, 0.34)" stroke-width="1.5"></path><path d="M425.86 569.91L369.37 637.43" stroke="hsla(350, 18.7%, 100%, 0.34)" stroke-width="1.5"></path><path d="M425.86 569.91L527.38 659.01" stroke="hsla(350, 18.7%, 100%, 0.34)" stroke-width="1.5"></path><path d="M425.86 569.91L365.52 446.43" stroke="hsla(350, 18.7%, 100%, 0.34)" stroke-width="1.5"></path><path d="M425.86 569.91L563.96 534.38" stroke="hsla(350, 18.7%, 100%, 0.34)" stroke-width="1.5"></path><path d="M554.64 -43.34L554.64 -43.34" stroke="hsla(350, 18.7%, 100%, 0.34)" stroke-width="1.5"></path><path d="M554.64 -43.34L464.25 -71.47" stroke="hsla(350, 18.7%, 100%, 0.34)" stroke-width="1.5"></path><path d="M554.64 -43.34L546.41 60.09" stroke="hsla(350, 18.7%, 100%, 0.34)" stroke-width="1.5"></path><path d="M554.64 -43.34L573.99 141.08" stroke="hsla(350, 18.7%, 100%, 0.34)" stroke-width="1.5"></path><path d="M554.64 -43.34L554.47 226.17" stroke="hsla(350, 18.7%, 100%, 0.34)" stroke-width="1.5"></path><path d="M554.64 -43.34L448.91 240.24" stroke="hsla(350, 18.7%, 100%, 0.34)" stroke-width="1.5"></path><path d="M527.38 659.01L527.38 659.01" stroke="hsla(350, 18.7%, 100%, 0.34)" stroke-width="1.5"></path><path d="M527.38 659.01L467.73 633.21" stroke="hsla(350, 18.7%, 100%, 0.34)" stroke-width="1.5"></path><path d="M527.38 659.01L557.65 755.35" stroke="hsla(350, 18.7%, 100%, 0.34)" stroke-width="1.5"></path><path d="M527.38 659.01L440.29 754.84" stroke="hsla(350, 18.7%, 100%, 0.34)" stroke-width="1.5"></path><path d="M527.38 659.01L563.96 534.38" stroke="hsla(350, 18.7%, 100%, 0.34)" stroke-width="1.5"></path><path d="M-72.99 632.12L-72.99 632.12" stroke="hsla(350, 18.7%, 100%, 0.34)" stroke-width="1.5"></path><path d="M-72.99 632.12L54.48 668.84" stroke="hsla(350, 18.7%, 100%, 0.34)" stroke-width="1.5"></path><path d="M-72.99 632.12L-29.65 774.45" stroke="hsla(350, 18.7%, 100%, 0.34)" stroke-width="1.5"></path><path d="M-72.99 632.12L64.15 740.81" stroke="hsla(350, 18.7%, 100%, 0.34)" stroke-width="1.5"></path><path d="M-72.99 632.12L-71.79 840.42" stroke="hsla(350, 18.7%, 100%, 0.34)" stroke-width="1.5"></path><path d="M-72.99 632.12L147.69 644.18" stroke="hsla(350, 18.7%, 100%, 0.34)" stroke-width="1.5"></path><path d="M-29.65 774.45L-29.65 774.45" stroke="hsla(350, 18.7%, 100%, 0.34)" stroke-width="1.5"></path><path d="M-29.65 774.45L-71.79 840.42" stroke="hsla(350, 18.7%, 100%, 0.34)" stroke-width="1.5"></path><path d="M-29.65 774.45L62.96 867.17" stroke="hsla(350, 18.7%, 100%, 0.34)" stroke-width="1.5"></path><path d="M-29.65 774.45L54.48 668.84" stroke="hsla(350, 18.7%, 100%, 0.34)" stroke-width="1.5"></path><path d="M-71.79 840.42L-71.79 840.42" stroke="hsla(350, 18.7%, 100%, 0.34)" stroke-width="1.5"></path><path d="M-71.79 840.42L62.96 867.17" stroke="hsla(350, 18.7%, 100%, 0.34)" stroke-width="1.5"></path><path d="M-71.79 840.42L64.15 740.81" stroke="hsla(350, 18.7%, 100%, 0.34)" stroke-width="1.5"></path><path d="M62.96 867.17L62.96 867.17" stroke="hsla(350, 18.7%, 100%, 0.34)" stroke-width="1.5"></path><path d="M62.96 867.17L64.15 740.81" stroke="hsla(350, 18.7%, 100%, 0.34)" stroke-width="1.5"></path><path d="M62.96 867.17L144.09 727.35" stroke="hsla(350, 18.7%, 100%, 0.34)" stroke-width="1.5"></path><path d="M147.69 644.18L147.69 644.18" stroke="hsla(350, 18.7%, 100%, 0.34)" stroke-width="1.5"></path><path d="M147.69 644.18L144.09 727.35" stroke="hsla(350, 18.7%, 100%, 0.34)" stroke-width="1.5"></path><path d="M144.09 727.35L144.09 727.35" stroke="hsla(350, 18.7%, 100%, 0.34)" stroke-width="1.5"></path><path d="M144.09 727.35L54.48 668.84" stroke="hsla(350, 18.7%, 100%, 0.34)" stroke-width="1.5"></path><path d="M235.99 865.76L235.99 865.76" stroke="hsla(350, 18.7%, 100%, 0.34)" stroke-width="1.5"></path><path d="M235.99 865.76L365.55 828.99" stroke="hsla(350, 18.7%, 100%, 0.34)" stroke-width="1.5"></path><path d="M235.99 865.76L343.18 756.66" stroke="hsla(350, 18.7%, 100%, 0.34)" stroke-width="1.5"></path><path d="M365.52 446.43L365.52 446.43" stroke="hsla(350, 18.7%, 100%, 0.34)" stroke-width="1.5"></path><path d="M365.52 446.43L473.55 431.15" stroke="hsla(350, 18.7%, 100%, 0.34)" stroke-width="1.5"></path><path d="M365.52 446.43L453.06 367.77" stroke="hsla(350, 18.7%, 100%, 0.34)" stroke-width="1.5"></path><path d="M365.52 446.43L347.63 570.91" stroke="hsla(350, 18.7%, 100%, 0.34)" stroke-width="1.5"></path><path d="M347.63 570.91L347.63 570.91" stroke="hsla(350, 18.7%, 100%, 0.34)" stroke-width="1.5"></path><path d="M347.63 570.91L369.37 637.43" stroke="hsla(350, 18.7%, 100%, 0.34)" stroke-width="1.5"></path><path d="M369.37 637.43L369.37 637.43" stroke="hsla(350, 18.7%, 100%, 0.34)" stroke-width="1.5"></path><path d="M369.37 637.43L467.73 633.21" stroke="hsla(350, 18.7%, 100%, 0.34)" stroke-width="1.5"></path><path d="M369.37 637.43L343.18 756.66" stroke="hsla(350, 18.7%, 100%, 0.34)" stroke-width="1.5"></path><path d="M343.18 756.66L343.18 756.66" stroke="hsla(350, 18.7%, 100%, 0.34)" stroke-width="1.5"></path><path d="M343.18 756.66L365.55 828.99" stroke="hsla(350, 18.7%, 100%, 0.34)" stroke-width="1.5"></path><path d="M343.18 756.66L440.29 754.84" stroke="hsla(350, 18.7%, 100%, 0.34)" stroke-width="1.5"></path><path d="M365.55 828.99L365.55 828.99" stroke="hsla(350, 18.7%, 100%, 0.34)" stroke-width="1.5"></path><path d="M365.55 828.99L440.29 754.84" stroke="hsla(350, 18.7%, 100%, 0.34)" stroke-width="1.5"></path><path d="M464.25 -71.47L464.25 -71.47" stroke="hsla(350, 18.7%, 100%, 0.34)" stroke-width="1.5"></path><path d="M448.91 240.24L448.91 240.24" stroke="hsla(350, 18.7%, 100%, 0.34)" stroke-width="1.5"></path><path d="M448.91 240.24L554.47 226.17" stroke="hsla(350, 18.7%, 100%, 0.34)" stroke-width="1.5"></path><path d="M448.91 240.24L453.06 367.77" stroke="hsla(350, 18.7%, 100%, 0.34)" stroke-width="1.5"></path><path d="M448.91 240.24L573.99 141.08" stroke="hsla(350, 18.7%, 100%, 0.34)" stroke-width="1.5"></path><path d="M453.06 367.77L453.06 367.77" stroke="hsla(350, 18.7%, 100%, 0.34)" stroke-width="1.5"></path><path d="M453.06 367.77L473.55 431.15" stroke="hsla(350, 18.7%, 100%, 0.34)" stroke-width="1.5"></path><path d="M453.06 367.77L558.67 361.21" stroke="hsla(350, 18.7%, 100%, 0.34)" stroke-width="1.5"></path><path d="M473.55 431.15L473.55 431.15" stroke="hsla(350, 18.7%, 100%, 0.34)" stroke-width="1.5"></path><path d="M473.55 431.15L569.3 460.58" stroke="hsla(350, 18.7%, 100%, 0.34)" stroke-width="1.5"></path><path d="M473.55 431.15L558.67 361.21" stroke="hsla(350, 18.7%, 100%, 0.34)" stroke-width="1.5"></path><path d="M473.55 431.15L563.96 534.38" stroke="hsla(350, 18.7%, 100%, 0.34)" stroke-width="1.5"></path><path d="M473.55 431.15L425.86 569.91" stroke="hsla(350, 18.7%, 100%, 0.34)" stroke-width="1.5"></path><path d="M467.73 633.21L467.73 633.21" stroke="hsla(350, 18.7%, 100%, 0.34)" stroke-width="1.5"></path><path d="M467.73 633.21L440.29 754.84" stroke="hsla(350, 18.7%, 100%, 0.34)" stroke-width="1.5"></path><path d="M467.73 633.21L347.63 570.91" stroke="hsla(350, 18.7%, 100%, 0.34)" stroke-width="1.5"></path><path d="M440.29 754.84L440.29 754.84" stroke="hsla(350, 18.7%, 100%, 0.34)" stroke-width="1.5"></path><path d="M440.29 754.84L470.27 849.8" stroke="hsla(350, 18.7%, 100%, 0.34)" stroke-width="1.5"></path><path d="M470.27 849.8L470.27 849.8" stroke="hsla(350, 18.7%, 100%, 0.34)" stroke-width="1.5"></path><path d="M470.27 849.8L566.97 863.07" stroke="hsla(350, 18.7%, 100%, 0.34)" stroke-width="1.5"></path><path d="M470.27 849.8L365.55 828.99" stroke="hsla(350, 18.7%, 100%, 0.34)" stroke-width="1.5"></path><path d="M546.41 60.09L546.41 60.09" stroke="hsla(350, 18.7%, 100%, 0.34)" stroke-width="1.5"></path><path d="M546.41 60.09L573.99 141.08" stroke="hsla(350, 18.7%, 100%, 0.34)" stroke-width="1.5"></path><path d="M546.41 60.09L464.25 -71.47" stroke="hsla(350, 18.7%, 100%, 0.34)" stroke-width="1.5"></path><path d="M573.99 141.08L573.99 141.08" stroke="hsla(350, 18.7%, 100%, 0.34)" stroke-width="1.5"></path><path d="M573.99 141.08L554.47 226.17" stroke="hsla(350, 18.7%, 100%, 0.34)" stroke-width="1.5"></path><path d="M554.47 226.17L554.47 226.17" stroke="hsla(350, 18.7%, 100%, 0.34)" stroke-width="1.5"></path><path d="M558.67 361.21L558.67 361.21" stroke="hsla(350, 18.7%, 100%, 0.34)" stroke-width="1.5"></path><path d="M558.67 361.21L569.3 460.58" stroke="hsla(350, 18.7%, 100%, 0.34)" stroke-width="1.5"></path><path d="M558.67 361.21L554.47 226.17" stroke="hsla(350, 18.7%, 100%, 0.34)" stroke-width="1.5"></path><path d="M558.67 361.21L448.91 240.24" stroke="hsla(350, 18.7%, 100%, 0.34)" stroke-width="1.5"></path><path d="M558.67 361.21L563.96 534.38" stroke="hsla(350, 18.7%, 100%, 0.34)" stroke-width="1.5"></path><path d="M569.3 460.58L569.3 460.58" stroke="hsla(350, 18.7%, 100%, 0.34)" stroke-width="1.5"></path><path d="M569.3 460.58L563.96 534.38" stroke="hsla(350, 18.7%, 100%, 0.34)" stroke-width="1.5"></path><path d="M569.3 460.58L453.06 367.77" stroke="hsla(350, 18.7%, 100%, 0.34)" stroke-width="1.5"></path><path d="M569.3 460.58L425.86 569.91" stroke="hsla(350, 18.7%, 100%, 0.34)" stroke-width="1.5"></path><path d="M569.3 460.58L467.73 633.21" stroke="hsla(350, 18.7%, 100%, 0.34)" stroke-width="1.5"></path><path d="M563.96 534.38L563.96 534.38" stroke="hsla(350, 18.7%, 100%, 0.34)" stroke-width="1.5"></path><path d="M563.96 534.38L467.73 633.21" stroke="hsla(350, 18.7%, 100%, 0.34)" stroke-width="1.5"></path><path d="M557.65 755.35L557.65 755.35" stroke="hsla(350, 18.7%, 100%, 0.34)" stroke-width="1.5"></path><path d="M557.65 755.35L566.97 863.07" stroke="hsla(350, 18.7%, 100%, 0.34)" stroke-width="1.5"></path><path d="M557.65 755.35L440.29 754.84" stroke="hsla(350, 18.7%, 100%, 0.34)" stroke-width="1.5"></path><path d="M566.97 863.07L566.97 863.07" stroke="hsla(350, 18.7%, 100%, 0.34)" stroke-width="1.5"></path><circle r="25" cx="54.48" cy="668.84" fill="url(#SvgjsRadialGradient1065)"></circle><circle r="25" cx="64.15" cy="740.81" fill="url(#SvgjsRadialGradient1065)"></circle><circle r="25" cx="138.57" cy="865.86" fill="url(#SvgjsRadialGradient1065)"></circle><circle r="25" cx="237.97" cy="658.5" fill="url(#SvgjsRadialGradient1065)"></circle><circle r="25" cx="230.4" cy="737.2" fill="url(#SvgjsRadialGradient1065)"></circle><circle r="25" cx="449.06" cy="50.42" fill="url(#SvgjsRadialGradient1065)"></circle><circle r="25" cx="425.86" cy="569.91" fill="url(#SvgjsRadialGradient1065)"></circle><circle r="25" cx="554.64" cy="-43.34" fill="url(#SvgjsRadialGradient1065)"></circle><circle r="25" cx="527.38" cy="659.01" fill="url(#SvgjsRadialGradient1065)"></circle><circle r="5" cx="-72.99" cy="632.12" fill="rgba(253, 252, 252, 0.67)"></circle><circle r="5" cx="-29.65" cy="774.45" fill="rgba(253, 252, 252, 0.67)"></circle><circle r="5" cx="-71.79" cy="840.42" fill="rgba(253, 252, 252, 0.67)"></circle><circle r="5" cx="62.96" cy="867.17" fill="rgba(253, 252, 252, 0.67)"></circle><circle r="5" cx="147.69" cy="644.18" fill="rgba(253, 252, 252, 0.67)"></circle><circle r="5" cx="144.09" cy="727.35" fill="rgba(253, 252, 252, 0.67)"></circle><circle r="5" cx="235.99" cy="865.76" fill="rgba(253, 252, 252, 0.67)"></circle><circle r="5" cx="365.52" cy="446.43" fill="rgba(253, 252, 252, 0.67)"></circle><circle r="5" cx="347.63" cy="570.91" fill="rgba(253, 252, 252, 0.67)"></circle><circle r="5" cx="369.37" cy="637.43" fill="rgba(253, 252, 252, 0.67)"></circle><circle r="5" cx="343.18" cy="756.66" fill="rgba(253, 252, 252, 0.67)"></circle><circle r="5" cx="365.55" cy="828.99" fill="rgba(253, 252, 252, 0.67)"></circle><circle r="5" cx="464.25" cy="-71.47" fill="rgba(253, 252, 252, 0.67)"></circle><circle r="5" cx="448.91" cy="240.24" fill="rgba(253, 252, 252, 0.67)"></circle><circle r="5" cx="453.06" cy="367.77" fill="rgba(253, 252, 252, 0.67)"></circle><circle r="5" cx="473.55" cy="431.15" fill="rgba(253, 252, 252, 0.67)"></circle><circle r="5" cx="467.73" cy="633.21" fill="rgba(253, 252, 252, 0.67)"></circle><circle r="5" cx="440.29" cy="754.84" fill="rgba(253, 252, 252, 0.67)"></circle><circle r="5" cx="470.27" cy="849.8" fill="rgba(253, 252, 252, 0.67)"></circle><circle r="5" cx="546.41" cy="60.09" fill="rgba(253, 252, 252, 0.67)"></circle><circle r="5" cx="573.99" cy="141.08" fill="rgba(253, 252, 252, 0.67)"></circle><circle r="5" cx="554.47" cy="226.17" fill="rgba(253, 252, 252, 0.67)"></circle><circle r="5" cx="558.67" cy="361.21" fill="rgba(253, 252, 252, 0.67)"></circle><circle r="5" cx="569.3" cy="460.58" fill="rgba(253, 252, 252, 0.67)"></circle><circle r="5" cx="563.96" cy="534.38" fill="rgba(253, 252, 252, 0.67)"></circle><circle r="5" cx="557.65" cy="755.35" fill="rgba(253, 252, 252, 0.67)"></circle><circle r="5" cx="566.97" cy="863.07" fill="rgba(253, 252, 252, 0.67)"></circle></g><defs><mask id="SvgjsMask1063"><rect width="500" height="800" fill="#ffffff"></rect></mask><linearGradient x1="-15%" y1="90.63%" x2="115%" y2="9.38%" gradientUnits="userSpaceOnUse" id="SvgjsLinearGradient1064"><stop stop-color="#0e2a47" offset="0"></stop><stop stop-color="rgba(36, 2, 62, 1)" offset="1"></stop></linearGradient><radialGradient id="SvgjsRadialGradient1065"><stop stop-color="#ffffff" offset="0.1"></stop><stop stop-color="rgba(242, 236, 237, 0.34)" offset="0.2"></stop><stop stop-color="rgba(242, 236, 237, 0)" offset="1"></stop></radialGradient></defs></svg>